<svg width="18" height="16" viewBox="0 0 18 16" fill="none" xmlns="http://www.w3.org/2000/svg">
<path fill-rule="evenodd" clip-rule="evenodd" d="M7.28762 0.708985H10.715C12.2464 0.708971 13.4595 0.708961 14.4088 0.836597C15.3858 0.967954 16.1766 1.24472 16.8003 1.86835C17.4239 2.49199 17.7007 3.28278 17.832 4.2598C17.9074 4.82052 17.9383 5.47323 17.9509 6.22921C17.9566 6.26328 17.9596 6.29828 17.9596 6.33398C17.9596 6.36336 17.9576 6.39227 17.9537 6.42056C17.9596 6.892 17.9596 7.40218 17.9596 7.95364V8.04766C17.9596 9.57913 17.9597 10.7922 17.832 11.7415C17.7007 12.7185 17.4239 13.5093 16.8003 14.1329C16.1766 14.7566 15.3858 15.0333 14.4088 15.1647C13.4595 15.2923 12.2464 15.2923 10.715 15.2923H7.28763C5.75616 15.2923 4.54313 15.2923 3.59378 15.1647C2.61676 15.0333 1.82597 14.7566 1.20234 14.1329C0.578702 13.5093 0.301938 12.7185 0.170581 11.7415C0.0429453 10.7922 0.0429558 9.57913 0.042969 8.04767V7.95364C0.0429643 7.40217 0.0429599 6.89199 0.0489157 6.42055C0.0449955 6.39226 0.0429693 6.36336 0.0429693 6.33398C0.0429693 6.29829 0.045962 6.26329 0.05171 6.22923C0.064337 5.47324 0.0951937 4.82053 0.170581 4.2598C0.301938 3.28278 0.578702 2.49199 1.20234 1.86835C1.82597 1.24472 2.61677 0.967954 3.59378 0.836597C4.54313 0.708961 5.75616 0.708971 7.28762 0.708985ZM1.29463 6.95898C1.29304 7.28265 1.29297 7.62907 1.29297 8.00065C1.29297 9.58967 1.2943 10.7186 1.40943 11.5749C1.52216 12.4134 1.73355 12.8964 2.08622 13.2491C2.4389 13.6017 2.92194 13.8131 3.76034 13.9259C4.61673 14.041 5.74562 14.0423 7.33464 14.0423H10.668C12.257 14.0423 13.3859 14.041 14.2423 13.9259C15.0807 13.8131 15.5637 13.6017 15.9164 13.2491C16.2691 12.8964 16.4804 12.4134 16.5932 11.5749C16.7083 10.7186 16.7096 9.58967 16.7096 8.00065C16.7096 7.62907 16.7096 7.28265 16.708 6.95898H1.29463ZM16.6879 5.70898H1.3147C1.331 5.22005 1.35952 4.7976 1.40943 4.42636C1.52216 3.58795 1.73355 3.10491 2.08622 2.75224C2.4389 2.39956 2.92194 2.18817 3.76034 2.07545C4.61673 1.96031 5.74562 1.95898 7.33464 1.95898H10.668C12.257 1.95898 13.3859 1.96031 14.2423 2.07545C15.0807 2.18817 15.5637 2.39956 15.9164 2.75224C16.2691 3.10491 16.4804 3.58795 16.5932 4.42636C16.6431 4.7976 16.6716 5.22005 16.6879 5.70898ZM3.3763 11.334C3.3763 10.9888 3.65612 10.709 4.0013 10.709H7.33464C7.67981 10.709 7.95964 10.9888 7.95964 11.334C7.95964 11.6792 7.67981 11.959 7.33464 11.959H4.0013C3.65612 11.959 3.3763 11.6792 3.3763 11.334ZM8.79297 11.334C8.79297 10.9888 9.07279 10.709 9.41797 10.709H10.668C11.0131 10.709 11.293 10.9888 11.293 11.334C11.293 11.6792 11.0131 11.959 10.668 11.959H9.41797C9.07279 11.959 8.79297 11.6792 8.79297 11.334Z" fill="#9B9DA3"/>
</svg>
