<svg width="25" height="24" viewBox="0 0 25 24" fill="none" xmlns="http://www.w3.org/2000/svg">
<path d="M12.0397 12.6337C11.3259 11.4751 9.95994 10.67 8.595 10.67L8.59249 10.67L3.125 10.6975V7.81C3.125 6.08944 3.63593 4.77618 4.51855 3.89355C5.40118 3.01093 6.71444 2.5 8.435 2.5H16.815C18.5356 2.5 19.8488 3.01093 20.7314 3.89355C21.6141 4.77618 22.125 6.08944 22.125 7.81V12H18.609C18.6046 11.998 18.5998 11.9957 18.5947 11.9931C18.5834 11.9874 18.5716 11.9808 18.5597 11.9738C18.5479 11.9667 18.5371 11.9596 18.5276 11.9529C18.5256 11.9515 18.5237 11.9501 18.5219 11.9488L17.5076 10.0274C17.5075 10.0273 17.5075 10.0272 17.5075 10.0271C17.0225 9.10471 16.1455 8.52875 15.1587 8.58069C14.1682 8.63282 13.3685 9.29928 12.9804 10.2751C12.9804 10.2752 12.9804 10.2752 12.9804 10.2753L12.0397 12.6337Z" fill="white" stroke="white"/>
<path d="M22.125 14.5006V16.1906C22.125 17.8787 21.6349 19.1728 20.7864 20.0522C19.9387 20.9309 18.678 21.4531 17.0236 21.4908L17.0115 21.491L16.9994 21.4919C16.8804 21.5004 16.7489 21.5006 16.595 21.5006H8.595C8.48027 21.5006 8.38362 21.5003 8.30027 21.4927L8.28192 21.491L8.2635 21.4907C6.5996 21.4624 5.32949 20.9423 4.47495 20.0623C3.61966 19.1816 3.125 17.883 3.125 16.1906V13.1981L8.605 13.1706C8.60538 13.1706 8.60576 13.1706 8.60614 13.1706C8.86048 13.1709 9.16114 13.2708 9.43343 13.4563C9.7062 13.6422 9.90757 13.8848 9.9985 14.1206L9.99848 14.1206L10.0001 14.1247L11.1401 17.0047L11.1408 17.0063C11.2209 17.2066 11.3269 17.3929 11.4682 17.5367C11.6117 17.6827 11.8174 17.8081 12.0737 17.8081C12.331 17.8081 12.537 17.6819 12.6802 17.5339C12.8202 17.3891 12.9236 17.2024 13.0008 17.0025L15.297 11.202L16.3324 13.1632C16.3325 13.1634 16.3325 13.1635 16.3326 13.1637C16.5394 13.5569 16.8877 13.8855 17.266 14.1146C17.6446 14.3438 18.0983 14.5006 18.545 14.5006H22.125Z" fill="white" stroke="white"/>
<path d="M2.62375 12.6992V16.0092C2.60375 15.6892 2.59375 15.3492 2.59375 14.9992V12.6992H2.62375Z" fill="white"/>
</svg>
