<svg width="17" height="16" viewBox="0 0 17 16" fill="none" xmlns="http://www.w3.org/2000/svg">
<path d="M8.9987 6.00065C8.9987 5.72451 8.77484 5.50065 8.4987 5.50065C8.22256 5.50065 7.9987 5.72451 7.9987 6.00065L7.9987 7.50067H6.4987C6.22256 7.50067 5.9987 7.72453 5.9987 8.00067C5.9987 8.27681 6.22256 8.50067 6.4987 8.50067H7.9987V10.0007C7.9987 10.2768 8.22255 10.5007 8.4987 10.5007C8.77484 10.5007 8.9987 10.2768 8.9987 10.0007L8.9987 8.50067H10.4987C10.7748 8.50067 10.9987 8.27681 10.9987 8.00067C10.9987 7.72452 10.7748 7.50067 10.4987 7.50067H8.9987V6.00065Z" fill="#A365ED"/>
<path fill-rule="evenodd" clip-rule="evenodd" d="M8.4987 0.833984C4.54066 0.833984 1.33203 4.04261 1.33203 8.00065C1.33203 11.9587 4.54066 15.1673 8.4987 15.1673C12.4567 15.1673 15.6654 11.9587 15.6654 8.00065C15.6654 4.04261 12.4567 0.833984 8.4987 0.833984ZM2.33203 8.00065C2.33203 4.5949 5.09294 1.83398 8.4987 1.83398C11.9045 1.83398 14.6654 4.5949 14.6654 8.00065C14.6654 11.4064 11.9045 14.1673 8.4987 14.1673C5.09294 14.1673 2.33203 11.4064 2.33203 8.00065Z" fill="#A365ED"/>
</svg>
