<svg width="19" height="16" viewBox="0 0 19 16" fill="none" xmlns="http://www.w3.org/2000/svg">
<path fill-rule="evenodd" clip-rule="evenodd" d="M8.03762 0.708985H11.465C12.9964 0.708971 14.2095 0.708961 15.1588 0.836597C16.1358 0.967954 16.9266 1.24472 17.5503 1.86835C18.1739 2.49199 18.4507 3.28278 18.582 4.2598C18.6574 4.82052 18.6883 5.47323 18.7009 6.22921C18.7066 6.26328 18.7096 6.29828 18.7096 6.33398C18.7096 6.36336 18.7076 6.39227 18.7037 6.42056C18.7096 6.892 18.7096 7.40218 18.7096 7.95364V8.04766C18.7096 9.57913 18.7097 10.7922 18.582 11.7415C18.4507 12.7185 18.1739 13.5093 17.5503 14.1329C16.9266 14.7566 16.1358 15.0333 15.1588 15.1647C14.2095 15.2923 12.9964 15.2923 11.465 15.2923H8.03763C6.50616 15.2923 5.29313 15.2923 4.34378 15.1647C3.36676 15.0333 2.57597 14.7566 1.95234 14.1329C1.3287 13.5093 1.05194 12.7185 0.920581 11.7415C0.792945 10.7922 0.792956 9.57913 0.792969 8.04767V7.95364C0.792964 7.40217 0.79296 6.89199 0.798916 6.42055C0.794995 6.39226 0.792969 6.36336 0.792969 6.33398C0.792969 6.29829 0.795962 6.26329 0.80171 6.22923C0.814337 5.47324 0.845194 4.82053 0.920581 4.2598C1.05194 3.28278 1.3287 2.49199 1.95234 1.86835C2.57597 1.24472 3.36677 0.967954 4.34378 0.836597C5.29313 0.708961 6.50616 0.708971 8.03762 0.708985ZM2.04463 6.95898C2.04304 7.28264 2.04297 7.62907 2.04297 8.00065C2.04297 9.58967 2.0443 10.7186 2.15943 11.5749C2.27216 12.4134 2.48355 12.8964 2.83622 13.2491C3.1889 13.6017 3.67193 13.8131 4.51034 13.9259C5.36673 14.041 6.49562 14.0423 8.08463 14.0423H11.418C13.007 14.0423 14.1359 14.041 14.9923 13.9259C15.8307 13.8131 16.3137 13.6017 16.6664 13.2491C17.0191 12.8964 17.2304 12.4134 17.3432 11.5749C17.4583 10.7186 17.4596 9.58967 17.4596 8.00065C17.4596 7.62907 17.4596 7.28264 17.458 6.95898H2.04463ZM17.4379 5.70898H2.0647C2.081 5.22004 2.10952 4.7976 2.15943 4.42636C2.27216 3.58795 2.48355 3.10491 2.83622 2.75224C3.1889 2.39956 3.67194 2.18817 4.51034 2.07545C5.36673 1.96031 6.49562 1.95898 8.08464 1.95898H11.418C13.007 1.95898 14.1359 1.96031 14.9923 2.07545C15.8307 2.18817 16.3137 2.39956 16.6664 2.75224C17.0191 3.10491 17.2304 3.58795 17.3432 4.42636C17.3931 4.7976 17.4216 5.22004 17.4379 5.70898ZM13.0473 8.20898H13.1219C13.4826 8.20894 13.8133 8.2089 14.0823 8.24507C14.3785 8.2849 14.6916 8.3786 14.9492 8.63612C15.2067 8.89364 15.3004 9.20674 15.3402 9.50298C15.3764 9.77199 15.3763 10.1027 15.3763 10.4634V10.5379C15.3763 10.8986 15.3764 11.2293 15.3402 11.4983C15.3004 11.7946 15.2067 12.1077 14.9492 12.3652C14.6916 12.6227 14.3785 12.7164 14.0823 12.7562C13.8133 12.7924 13.4826 12.7924 13.1219 12.7923H13.0473C12.6867 12.7924 12.356 12.7924 12.087 12.7562C11.7907 12.7164 11.4776 12.6227 11.2201 12.3652C10.9626 12.1077 10.8689 11.7946 10.8291 11.4983C10.7929 11.2293 10.7929 10.8986 10.793 10.5379V10.4634C10.7929 10.1027 10.7929 9.77199 10.8291 9.50298C10.8689 9.20674 10.9626 8.89364 11.2201 8.63612C11.4776 8.3786 11.7907 8.2849 12.087 8.24507C12.356 8.2089 12.6867 8.20894 13.0473 8.20898ZM12.106 9.51887L12.104 9.52002L12.1029 9.52204C12.102 9.52365 12.1007 9.52642 12.0989 9.53062C12.0915 9.54877 12.0787 9.58907 12.0679 9.66954C12.0443 9.84514 12.043 10.0901 12.043 10.5007C12.043 10.9112 12.0443 11.1562 12.0679 11.3318C12.0787 11.4122 12.0915 11.4525 12.0989 11.4707C12.0996 11.4724 12.1003 11.4739 12.1008 11.4751C12.1017 11.4769 12.1024 11.4783 12.1029 11.4793L12.104 11.4813L12.106 11.4824C12.1076 11.4833 12.1104 11.4846 12.1146 11.4864C12.1328 11.4938 12.1731 11.5066 12.2535 11.5174C12.4291 11.541 12.6741 11.5423 13.0846 11.5423C13.4951 11.5423 13.7401 11.541 13.9157 11.5174C13.9962 11.5066 14.0365 11.4938 14.0547 11.4864C14.0589 11.4846 14.0616 11.4833 14.0632 11.4824L14.0653 11.4813L14.0664 11.4793C14.0673 11.4776 14.0686 11.4749 14.0703 11.4707C14.0778 11.4525 14.0905 11.4122 14.1014 11.3318C14.125 11.1562 14.1263 10.9112 14.1263 10.5007C14.1263 10.0901 14.125 9.84514 14.1014 9.66954C14.0905 9.58907 14.0778 9.54877 14.0703 9.53062C14.0693 9.52817 14.0684 9.5262 14.0677 9.52468C14.0672 9.52358 14.0668 9.52271 14.0664 9.52204L14.0653 9.52002L14.0632 9.51887C14.0616 9.51803 14.0589 9.51668 14.0547 9.51495C14.0365 9.50748 13.9962 9.49474 13.9157 9.48392C13.7401 9.46031 13.4951 9.45898 13.0846 9.45898C12.6741 9.45898 12.4291 9.46031 12.2535 9.48392C12.1731 9.49474 12.1328 9.50748 12.1146 9.51495C12.1104 9.51668 12.1076 9.51803 12.106 9.51887ZM4.1263 9.25065C4.1263 8.90547 4.40612 8.62565 4.7513 8.62565H6.41797C6.76315 8.62565 7.04297 8.90547 7.04297 9.25065C7.04297 9.59583 6.76315 9.87565 6.41797 9.87565H4.7513C4.40612 9.87565 4.1263 9.59583 4.1263 9.25065ZM12.104 11.4813C12.1037 11.481 12.1038 11.481 12.104 11.4813C12.1043 11.4815 12.1044 11.4817 12.104 11.4813ZM14.0653 11.4813C14.0651 11.4815 14.0652 11.4813 14.0653 11.4813V11.4813ZM4.1263 11.7507C4.1263 11.4055 4.40612 11.1257 4.7513 11.1257H8.08464C8.42981 11.1257 8.70964 11.4055 8.70964 11.7507C8.70964 12.0958 8.42981 12.3757 8.08464 12.3757H4.7513C4.40612 12.3757 4.1263 12.0958 4.1263 11.7507Z" fill="white"/>
</svg>
