<svg width="103" height="102" viewBox="0 0 103 102" fill="none" xmlns="http://www.w3.org/2000/svg">
<path d="M21.5086 90H81.49C83.1386 90.004 84.7278 89.381 85.939 88.2559C90.9919 83.5495 95.0342 77.8529 97.8174 71.5164C100.601 65.18 102.066 58.3377 102.123 51.4105C102.382 23.2432 79.6218 0.0666198 51.6222 0.000144978C23.6066 -0.0663674 0.875033 22.7613 0.875033 50.9302C0.867033 57.9412 2.302 64.8779 5.08959 71.3036C7.87717 77.7293 11.957 83.5047 17.0722 88.2663C18.2809 89.3862 19.8654 90.0054 21.5086 90Z" fill="url(#paint0_linear_1944_2010)"/>
<path d="M71.424 13.428C65.8842 18.0765 82.7179 38.1381 88.2577 33.4896C90.9168 31.2569 92.5802 28.0596 92.8823 24.6006C93.1844 21.1417 92.1003 17.7044 89.8685 15.0447C87.6366 12.3849 84.4398 10.7204 80.981 10.4172C77.5222 10.1141 74.0845 11.197 71.424 13.428Z" fill="#A365ED"/>
<path d="M31.5736 13.4287C37.1135 18.0772 20.2798 38.1388 14.7399 33.4903C13.4227 32.385 12.336 31.031 11.542 29.5058C10.748 27.9805 10.2622 26.3138 10.1123 24.6007C9.96246 22.8877 10.1515 21.162 10.6685 19.522C11.1856 17.882 12.0207 16.3599 13.126 15.0427C14.2313 13.7254 15.5852 12.6388 17.1105 11.8447C18.6358 11.0507 20.3025 10.5649 22.0155 10.4151C23.7285 10.2652 25.4543 10.4542 27.0943 10.9713C28.7343 11.4884 30.2563 12.3234 31.5736 13.4287Z" fill="#A365ED"/>
<path d="M29.9805 78.1152H72.9994V85.8946C72.9994 86.9452 72.5821 87.9526 71.8393 88.6955C71.0964 89.4383 70.0889 89.8556 69.0384 89.8556H33.9414C32.8909 89.8556 31.8834 89.4383 31.1406 88.6955C30.3978 87.9526 29.9805 86.9452 29.9805 85.8946V78.1152H29.9805Z" fill="#DBD4E3"/>
<g filter="url(#filter0_d_1944_2010)">
<path d="M51.6297 85.1656C72.8197 85.1656 89.9976 67.9877 89.9976 46.7976C89.9976 25.6076 72.8197 8.42969 51.6297 8.42969C30.4396 8.42969 13.2617 25.6076 13.2617 46.7976C13.2617 67.9877 30.4396 85.1656 51.6297 85.1656Z" fill="#EAE5F1"/>
</g>
<path d="M51.6299 81.0294C70.5355 81.0294 85.8614 65.7034 85.8614 46.7979C85.8614 27.8924 70.5355 12.5664 51.6299 12.5664C32.7244 12.5664 17.3984 27.8924 17.3984 46.7979C17.3984 65.7034 32.7244 81.0294 51.6299 81.0294Z" fill="#DBD4E3"/>
<path d="M51.6299 78.1153C68.926 78.1153 82.9473 64.094 82.9473 46.7979C82.9473 29.5017 68.926 15.4805 51.6299 15.4805C34.3338 15.4805 20.3125 29.5017 20.3125 46.7979C20.3125 64.094 34.3338 78.1153 51.6299 78.1153Z" fill="#EAE5F1"/>
<path d="M51.6301 74.8812C67.14 74.8812 79.7132 62.308 79.7132 46.798C79.7132 31.2881 67.14 18.7148 51.6301 18.7148C36.1201 18.7148 23.5469 31.2881 23.5469 46.798C23.5469 62.308 36.1201 74.8812 51.6301 74.8812Z" fill="white"/>
<path d="M53.032 17.2777C53.032 16.4264 52.3419 15.7363 51.4906 15.7363C50.6393 15.7363 49.9492 16.4264 49.9492 17.2777V22.342C49.9492 23.1933 50.6393 23.8834 51.4906 23.8834C52.3419 23.8834 53.032 23.1933 53.032 22.342V17.2777Z" fill="#EAE5F1"/>
<path d="M53.032 71.2543C53.032 70.403 52.3419 69.7129 51.4906 69.7129C50.6393 69.7129 49.9492 70.403 49.9492 71.2543V76.3186C49.9492 77.1699 50.6393 77.86 51.4906 77.86C52.3419 77.86 53.032 77.1699 53.032 76.3186V71.2543Z" fill="#EAE5F1"/>
<path d="M81.0094 48.3406C81.8607 48.3406 82.5508 47.6505 82.5508 46.7992C82.5508 45.9479 81.8607 45.2578 81.0094 45.2578H75.9451C75.0938 45.2578 74.4037 45.9479 74.4037 46.7992C74.4037 47.6505 75.0938 48.3406 75.9451 48.3406H81.0094Z" fill="#EAE5F1"/>
<path d="M27.0328 48.3406C27.8841 48.3406 28.5742 47.6505 28.5742 46.7992C28.5742 45.9479 27.8841 45.2578 27.0328 45.2578H21.9685C21.1172 45.2578 20.4271 45.9479 20.4271 46.7992C20.4271 47.6505 21.1172 48.3406 21.9685 48.3406H27.0328Z" fill="#EAE5F1"/>
<path d="M62.2356 60.9585C62.0179 60.9588 61.8027 60.9115 61.6051 60.82C61.4076 60.7284 61.2324 60.5948 61.0919 60.4284L50.3776 47.7661C50.1489 47.4958 50.0234 47.1532 50.0234 46.7991V28.2471C50.0239 27.8504 50.1819 27.4701 50.4626 27.1898C50.7433 26.9094 51.1238 26.752 51.5205 26.752C51.9172 26.752 52.2977 26.9094 52.5784 27.1898C52.8591 27.4701 53.0171 27.8504 53.0176 28.2471V46.2507L63.3777 58.4944C63.562 58.7123 63.6803 58.9783 63.7185 59.2612C63.7566 59.5441 63.7131 59.832 63.5931 60.091C63.4731 60.3499 63.2815 60.5692 63.041 60.7229C62.8005 60.8766 62.521 60.9583 62.2356 60.9585Z" fill="#A365ED"/>
<defs>
<filter id="filter0_d_1944_2010" x="1.26172" y="0.429688" width="100.734" height="100.736" filterUnits="userSpaceOnUse" color-interpolation-filters="sRGB">
<feFlood flood-opacity="0" result="BackgroundImageFix"/>
<feColorMatrix in="SourceAlpha" type="matrix" values="0 0 0 0 0 0 0 0 0 0 0 0 0 0 0 0 0 0 127 0" result="hardAlpha"/>
<feOffset dy="4"/>
<feGaussianBlur stdDeviation="6"/>
<feComposite in2="hardAlpha" operator="out"/>
<feColorMatrix type="matrix" values="0 0 0 0 0.639216 0 0 0 0 0.396078 0 0 0 0 0.929412 0 0 0 0.25 0"/>
<feBlend mode="normal" in2="BackgroundImageFix" result="effect1_dropShadow_1944_2010"/>
<feBlend mode="normal" in="SourceGraphic" in2="effect1_dropShadow_1944_2010" result="shape"/>
</filter>
<linearGradient id="paint0_linear_1944_2010" x1="51.5" y1="0" x2="51.5" y2="90" gradientUnits="userSpaceOnUse">
<stop stop-color="#FBFDFE"/>
<stop offset="1" stop-color="#F5F0FA"/>
</linearGradient>
</defs>
</svg>
