<svg width="48" height="48" viewBox="0 0 48 48" fill="none" xmlns="http://www.w3.org/2000/svg">
<g filter="url(#filter0_b_1918_4077)">
<rect width="48" height="48" rx="24" fill="white" fill-opacity="0.1"/>
<path fill-rule="evenodd" clip-rule="evenodd" d="M19.4353 13.25H28.5647C29.1346 13.25 29.6186 13.25 30.0185 13.2913C30.4443 13.3353 30.8378 13.4309 31.2096 13.6607C31.5814 13.8905 31.8429 14.1997 32.0727 14.5609C32.2885 14.9001 32.5049 15.333 32.7598 15.8428L32.7763 15.8757C32.786 15.8952 32.7949 15.915 32.8029 15.9353L34.2065 19.4834C34.3735 19.9056 34.5586 20.4323 34.6127 20.9713C34.6681 21.5226 34.5921 22.1541 34.1601 22.7019C33.8068 23.15 33.3155 23.4863 32.75 23.6463V33.25H34C34.4142 33.25 34.75 33.5858 34.75 34C34.75 34.4142 34.4142 34.75 34 34.75H14C13.5858 34.75 13.25 34.4142 13.25 34C13.25 33.5858 13.5858 33.25 14 33.25H15.25V23.6464C14.6845 23.4863 14.1931 23.15 13.8398 22.7019C13.4078 22.1541 13.3318 21.5226 13.3872 20.9713C13.4413 20.4323 13.6264 19.9056 13.7934 19.4834L15.197 15.9353C15.205 15.915 15.2139 15.8952 15.2236 15.8757L15.2401 15.8428C15.495 15.3329 15.7114 14.9001 15.9272 14.5609C16.157 14.1997 16.4185 13.8905 16.7903 13.6607C17.1621 13.4309 17.5556 13.3353 17.9814 13.2913C18.3813 13.25 18.8653 13.25 19.4353 13.25ZM29.9999 22.8875C30.3359 23.2433 30.7658 23.5096 31.25 23.6465V33.25H27.25L27.25 30.4678C27.25 30.028 27.25 29.6486 27.2218 29.3374C27.192 29.0082 27.1259 28.6822 26.9486 28.375C26.7511 28.033 26.467 27.7489 26.125 27.5514C25.8178 27.3741 25.4918 27.308 25.1627 27.2782C24.8514 27.25 24.472 27.25 24.0322 27.25H23.9678C23.528 27.25 23.1486 27.25 22.8373 27.2782C22.5082 27.308 22.1822 27.3741 21.875 27.5514C21.533 27.7489 21.2489 28.033 21.0514 28.375C20.8741 28.6822 20.808 29.0082 20.7782 29.3374C20.75 29.6486 20.75 30.028 20.75 30.4677L20.75 33.25H16.75V23.6465C17.2341 23.5095 17.664 23.2433 17.9999 22.8875C18.5013 23.4186 19.2119 23.75 19.9999 23.75C20.7879 23.75 21.4985 23.4186 21.9999 22.8875C22.5013 23.4186 23.2119 23.75 23.9999 23.75C24.7879 23.75 25.4985 23.4186 25.9999 22.8875C26.5013 23.4186 27.2119 23.75 27.9999 23.75C28.7879 23.75 29.4985 23.4186 29.9999 22.8875ZM22.25 33.25H25.75V30.5C25.75 30.0189 25.7493 29.7082 25.7279 29.4727C25.7075 29.2476 25.6731 29.1659 25.6495 29.125C25.5837 29.011 25.489 28.9163 25.375 28.8505C25.3341 28.8269 25.2524 28.7925 25.0273 28.7721C24.7918 28.7507 24.4811 28.75 24 28.75C23.5189 28.75 23.2082 28.7507 22.9727 28.7721C22.7476 28.7925 22.6659 28.8269 22.625 28.8505C22.511 28.9163 22.4163 29.011 22.3505 29.125C22.3269 29.1659 22.2925 29.2476 22.2721 29.4727C22.2507 29.7082 22.25 30.0189 22.25 30.5V33.25ZM18.7499 21C18.7499 21.6904 19.3096 22.25 19.9999 22.25C20.6903 22.25 21.2499 21.6904 21.2499 21C21.2499 20.5858 21.5857 20.25 21.9999 20.25C22.4141 20.25 22.7499 20.5858 22.7499 21C22.7499 21.6904 23.3096 22.25 23.9999 22.25C24.6903 22.25 25.2499 21.6904 25.2499 21C25.2499 20.5858 25.5857 20.25 25.9999 20.25C26.4141 20.25 26.7499 20.5858 26.7499 21C26.7499 21.6904 27.3096 22.25 27.9999 22.25C28.6903 22.25 29.2499 21.6904 29.2499 21C29.2499 20.5858 29.5857 20.25 29.9999 20.25C30.4141 20.25 30.7499 20.5858 30.7499 21C30.7499 21.6904 31.3096 22.25 31.9999 22.25C32.3979 22.25 32.7522 22.0649 32.9823 21.773C33.0962 21.6286 33.1513 21.4309 33.1202 21.1211C33.0879 20.799 32.969 20.4328 32.8117 20.0352L31.4201 16.5174C31.1524 15.982 30.9735 15.6275 30.8071 15.3661C30.6472 15.1147 30.5325 15.0056 30.421 14.9367C30.3095 14.8678 30.1606 14.814 29.8642 14.7834C29.5505 14.7509 29.1446 14.75 28.5278 14.75H19.4721C18.8553 14.75 18.4494 14.7509 18.1357 14.7834C17.8393 14.814 17.6904 14.8678 17.5789 14.9367C17.4674 15.0056 17.3527 15.1147 17.1928 15.3661C17.0265 15.6275 16.8476 15.982 16.5798 16.5174L15.1882 20.0352C15.031 20.4328 14.912 20.799 14.8797 21.1211C14.8486 21.4309 14.9037 21.6286 15.0176 21.7731C15.2477 22.0649 15.602 22.25 15.9999 22.25C16.6903 22.25 17.2499 21.6904 17.2499 21C17.2499 20.5858 17.5857 20.25 17.9999 20.25C18.4141 20.25 18.7499 20.5858 18.7499 21Z" fill="white"/>
<rect x="8" y="27" width="12" height="12" rx="1" fill="#B58BE9"/>
<path d="M17.5 32.75V33.25C17.5 33.3881 17.3881 33.5 17.25 33.5H14.5V36.25C14.5 36.3881 14.3881 36.5 14.25 36.5H13.75C13.6119 36.5 13.5 36.3881 13.5 36.25V33.5H10.75C10.6119 33.5 10.5 33.3881 10.5 33.25V32.75C10.5 32.6119 10.6119 32.5 10.75 32.5H13.5V29.75C13.5 29.6119 13.6119 29.5 13.75 29.5H14.25C14.3881 29.5 14.5 29.6119 14.5 29.75V32.5H17.25C17.3881 32.5 17.5 32.6119 17.5 32.75Z" fill="white"/>
</g>
<defs>
<filter id="filter0_b_1918_4077" x="-12" y="-12" width="72" height="72" filterUnits="userSpaceOnUse" color-interpolation-filters="sRGB">
<feFlood flood-opacity="0" result="BackgroundImageFix"/>
<feGaussianBlur in="BackgroundImageFix" stdDeviation="6"/>
<feComposite in2="SourceAlpha" operator="in" result="effect1_backgroundBlur_1918_4077"/>
<feBlend mode="normal" in="SourceGraphic" in2="effect1_backgroundBlur_1918_4077" result="shape"/>
</filter>
</defs>
</svg>
