<svg width="16" height="16" viewBox="0 0 16 16" fill="none" xmlns="http://www.w3.org/2000/svg">
<path fill-rule="evenodd" clip-rule="evenodd" d="M2.30834 2.30932C1.33203 3.28563 1.33203 4.85698 1.33203 7.99967C1.33203 11.1424 1.33203 12.7137 2.30834 13.69C3.28465 14.6663 4.856 14.6663 7.9987 14.6663C11.1414 14.6663 12.7127 14.6663 13.6891 13.69C14.6654 12.7137 14.6654 11.1424 14.6654 7.99967C14.6654 4.85698 14.6654 3.28563 13.6891 2.30932C12.7127 1.33301 11.1414 1.33301 7.9987 1.33301C4.856 1.33301 3.28465 1.33301 2.30834 2.30932ZM5.35225 3.97945C5.54751 4.17472 5.54751 4.4913 5.35225 4.68656L5.2058 4.83301H5.33203C6.45168 4.83301 7.43561 5.41409 7.9987 6.29113C8.56179 5.41409 9.54572 4.83301 10.6654 4.83301H10.7916L10.6451 4.68656C10.4499 4.4913 10.4499 4.17472 10.6451 3.97945C10.8404 3.78419 11.157 3.78419 11.3523 3.97945L12.3523 4.97945C12.5475 5.17472 12.5475 5.4913 12.3523 5.68656L11.3523 6.68656C11.157 6.88182 10.8404 6.88182 10.6451 6.68656C10.4499 6.4913 10.4499 6.17472 10.6451 5.97945L10.7916 5.83301H10.6654C9.46875 5.83301 8.4987 6.80306 8.4987 7.99967V11.9997C8.4987 12.2758 8.27484 12.4997 7.9987 12.4997C7.72256 12.4997 7.4987 12.2758 7.4987 11.9997V7.99967C7.4987 6.80306 6.52865 5.83301 5.33203 5.83301H5.2058L5.35225 5.97945C5.54751 6.17472 5.54751 6.4913 5.35225 6.68656C5.15699 6.88182 4.84041 6.88182 4.64514 6.68656L3.64514 5.68656C3.44988 5.4913 3.44988 5.17472 3.64514 4.97945L4.64514 3.97945C4.84041 3.78419 5.15699 3.78419 5.35225 3.97945Z" fill="#AD76EF"/>
</svg>
