<svg width="20" height="20" viewBox="0 0 20 20" fill="none" xmlns="http://www.w3.org/2000/svg">
<path fill-rule="evenodd" clip-rule="evenodd" d="M12.458 1.04102H14.2113C14.96 1.04099 15.5844 1.04097 16.08 1.10761C16.6032 1.17795 17.0755 1.33267 17.4551 1.71223C17.8346 2.09179 17.9894 2.56412 18.0597 3.08728C18.1263 3.58294 18.1263 4.20729 18.1263 4.95602V17.7077H18.3346C18.6798 17.7077 18.9596 17.9875 18.9596 18.3327C18.9596 18.6779 18.6798 18.9577 18.3346 18.9577H1.66797C1.32279 18.9577 1.04297 18.6779 1.04297 18.3327C1.04297 17.9875 1.32279 17.7077 1.66797 17.7077H1.8763L1.8763 7.45602C1.87628 6.70728 1.87626 6.08294 1.94289 5.58728C2.01323 5.06412 2.16796 4.59179 2.54752 4.21223C2.92707 3.83267 3.39941 3.67795 3.92257 3.60761C4.41822 3.54097 5.04257 3.54099 5.7913 3.54102L8.56629 3.54102C8.60917 2.81254 8.74347 2.18295 9.21418 1.71223C9.59374 1.33267 10.0661 1.17795 10.5892 1.10761C11.0849 1.04097 11.7092 1.04099 12.458 1.04102ZM9.17367 4.79102C9.17259 4.79102 9.17152 4.79102 9.17045 4.79102C9.16962 4.79102 9.1688 4.79102 9.16797 4.79102H5.83464C5.03129 4.79102 4.49166 4.79234 4.08913 4.84646C3.70458 4.89816 3.54 4.98752 3.4314 5.09611C3.3228 5.20471 3.23345 5.36929 3.18175 5.75384C3.12763 6.15637 3.1263 6.69601 3.1263 7.49935V17.7077H6.8763V15.8327C6.8763 15.4875 7.15612 15.2077 7.5013 15.2077C7.84648 15.2077 8.1263 15.4875 8.1263 15.8327V17.7077H11.8763V7.49935C11.8763 6.69601 11.875 6.15637 11.8209 5.75384C11.7692 5.36929 11.6798 5.20471 11.5712 5.09611C11.4626 4.98752 11.298 4.89816 10.9135 4.84646C10.5119 4.79247 9.97386 4.79102 9.17367 4.79102ZM13.1263 17.7077L13.1263 7.45602C13.1263 6.70729 13.1263 6.08294 13.0597 5.58728C12.9894 5.06412 12.8346 4.59179 12.4551 4.21223C12.0755 3.83267 11.6032 3.67795 11.08 3.60761C10.7256 3.55995 10.3053 3.54639 9.82076 3.54254C9.86257 2.95951 9.95431 2.73987 10.0981 2.59611C10.2067 2.48752 10.3712 2.39817 10.7558 2.34646C11.1583 2.29234 11.698 2.29102 12.5013 2.29102H14.168C14.9713 2.29102 15.5109 2.29234 15.9135 2.34646C16.298 2.39817 16.4626 2.48752 16.5712 2.59611C16.6798 2.70471 16.7692 2.86929 16.8209 3.25384C16.875 3.65637 16.8763 4.19601 16.8763 4.99935V17.7077H13.1263ZM4.3763 6.66602C4.3763 6.32084 4.65612 6.04102 5.0013 6.04102H10.0013C10.3465 6.04102 10.6263 6.32084 10.6263 6.66602C10.6263 7.0112 10.3465 7.29102 10.0013 7.29102H5.0013C4.65612 7.29102 4.3763 7.0112 4.3763 6.66602ZM4.3763 9.16602C4.3763 8.82084 4.65612 8.54102 5.0013 8.54102H10.0013C10.3465 8.54102 10.6263 8.82084 10.6263 9.16602C10.6263 9.51119 10.3465 9.79102 10.0013 9.79102H5.0013C4.65612 9.79102 4.3763 9.51119 4.3763 9.16602ZM4.3763 11.666C4.3763 11.3208 4.65612 11.041 5.0013 11.041H10.0013C10.3465 11.041 10.6263 11.3208 10.6263 11.666C10.6263 12.0112 10.3465 12.291 10.0013 12.291H5.0013C4.65612 12.291 4.3763 12.0112 4.3763 11.666Z" fill="#9B9DA3"/>
</svg>
