<svg width="20" height="16" viewBox="0 0 20 16" fill="none" xmlns="http://www.w3.org/2000/svg">
<path d="M12 0H8C4.22876 0 2.34315 0 1.17157 1.17157C0.328032 2.01511 0.0918467 3.22882 0.0257164 5.25H19.9743C19.9082 3.22882 19.672 2.01511 18.8284 1.17157C17.6569 0 15.7712 0 12 0Z" fill="#A365ED"/>
<path fill-rule="evenodd" clip-rule="evenodd" d="M12 16H8C4.22876 16 2.34315 16 1.17157 14.8284C0 13.6569 0 11.7712 0 8C0 7.55807 0 7.14203 0.00188529 6.75H19.9981C20 7.14203 20 7.55807 20 8C20 11.7712 20 13.6569 18.8284 14.8284C17.6569 16 15.7712 16 12 16ZM14.0447 8.25C14.4776 8.24995 14.8744 8.2499 15.1972 8.2933C15.5527 8.34109 15.9284 8.45354 16.2374 8.76256C16.5465 9.07159 16.6589 9.44731 16.7067 9.80279C16.7501 10.1256 16.7501 10.5224 16.75 10.9553V11.0447C16.7501 11.4776 16.7501 11.8744 16.7067 12.1972C16.6589 12.5527 16.5465 12.9284 16.2374 13.2374C15.9284 13.5465 15.5527 13.6589 15.1972 13.7067C14.8744 13.7501 14.4776 13.7501 14.0447 13.75L14 13.75L13.9553 13.75C13.5224 13.7501 13.1256 13.7501 12.8028 13.7067C12.4473 13.6589 12.0716 13.5465 11.7626 13.2374C11.4535 12.9284 11.3411 12.5527 11.2933 12.1972C11.2499 11.8744 11.2499 11.4776 11.25 11.0447L11.25 11L11.25 10.9553C11.2499 10.5224 11.2499 10.1256 11.2933 9.80279C11.3411 9.44731 11.4535 9.07159 11.7626 8.76256C12.0716 8.45354 12.4473 8.34109 12.8028 8.2933C13.1256 8.2499 13.5224 8.24995 13.9553 8.25H14.0447ZM3.25 9.5C3.25 9.08579 3.58579 8.75 4 8.75H6C6.41421 8.75 6.75 9.08579 6.75 9.5C6.75 9.91421 6.41421 10.25 6 10.25H4C3.58579 10.25 3.25 9.91421 3.25 9.5ZM3.25 12.5C3.25 12.0858 3.58579 11.75 4 11.75H8C8.41421 11.75 8.75 12.0858 8.75 12.5C8.75 12.9142 8.41421 13.25 8 13.25H4C3.58579 13.25 3.25 12.9142 3.25 12.5Z" fill="#A365ED"/>
<path d="M12.8233 9.82317L12.8257 9.82186C12.8276 9.82085 12.8309 9.81923 12.836 9.81716C12.8577 9.8082 12.9061 9.79291 13.0027 9.77992C13.2134 9.75159 13.5074 9.75 14 9.75C14.4926 9.75 14.7866 9.75159 14.9973 9.77992C15.0939 9.79291 15.1423 9.8082 15.164 9.81716C15.1691 9.81923 15.1724 9.82085 15.1743 9.82186L15.1768 9.82324L15.1781 9.82567C15.1791 9.8276 15.1808 9.83092 15.1828 9.83597C15.1918 9.85775 15.2071 9.90611 15.2201 10.0027C15.2484 10.2134 15.25 10.5074 15.25 11C15.25 11.4926 15.2484 11.7866 15.2201 11.9973C15.2071 12.0939 15.1918 12.1423 15.1828 12.164C15.1808 12.1691 15.1791 12.1724 15.1781 12.1743L15.1768 12.1768L15.1743 12.1781C15.1724 12.1791 15.1691 12.1808 15.164 12.1828C15.1423 12.1918 15.0939 12.2071 14.9973 12.2201C14.7866 12.2484 14.4926 12.25 14 12.25C13.5074 12.25 13.2134 12.2484 13.0027 12.2201C12.9061 12.2071 12.8577 12.1918 12.836 12.1828C12.8309 12.1808 12.8276 12.1791 12.8257 12.1781L12.8232 12.1768L12.8219 12.1743C12.8209 12.1724 12.8192 12.1691 12.8172 12.164C12.8082 12.1423 12.7929 12.0939 12.7799 11.9973C12.7516 11.7866 12.75 11.4926 12.75 11C12.75 10.5074 12.7516 10.2134 12.7799 10.0027C12.7929 9.90611 12.8082 9.85775 12.8172 9.83597C12.8192 9.83092 12.8209 9.8276 12.8219 9.82567L12.8233 9.82317Z" fill="#A365ED"/>
</svg>
