<svg width="18" height="18" viewBox="0 0 18 18" fill="none" xmlns="http://www.w3.org/2000/svg">
<path d="M13.168 10.6673C13.6282 10.6673 14.0013 10.2942 14.0013 9.83398C14.0013 9.37375 13.6282 9.00065 13.168 9.00065C12.7077 9.00065 12.3346 9.37375 12.3346 9.83398C12.3346 10.2942 12.7077 10.6673 13.168 10.6673Z" fill="#9B9DA3"/>
<path d="M13.168 14.0007C13.6282 14.0007 14.0013 13.6276 14.0013 13.1673C14.0013 12.7071 13.6282 12.334 13.168 12.334C12.7077 12.334 12.3346 12.7071 12.3346 13.1673C12.3346 13.6276 12.7077 14.0007 13.168 14.0007Z" fill="#9B9DA3"/>
<path d="M9.83464 9.83398C9.83464 10.2942 9.46154 10.6673 9.0013 10.6673C8.54107 10.6673 8.16797 10.2942 8.16797 9.83398C8.16797 9.37375 8.54107 9.00065 9.0013 9.00065C9.46154 9.00065 9.83464 9.37375 9.83464 9.83398Z" fill="#9B9DA3"/>
<path d="M9.83464 13.1673C9.83464 13.6276 9.46154 14.0007 9.0013 14.0007C8.54107 14.0007 8.16797 13.6276 8.16797 13.1673C8.16797 12.7071 8.54107 12.334 9.0013 12.334C9.46154 12.334 9.83464 12.7071 9.83464 13.1673Z" fill="#9B9DA3"/>
<path d="M4.83464 10.6673C5.29487 10.6673 5.66797 10.2942 5.66797 9.83398C5.66797 9.37375 5.29487 9.00065 4.83464 9.00065C4.3744 9.00065 4.0013 9.37375 4.0013 9.83398C4.0013 10.2942 4.3744 10.6673 4.83464 10.6673Z" fill="#9B9DA3"/>
<path d="M4.83464 14.0007C5.29487 14.0007 5.66797 13.6276 5.66797 13.1673C5.66797 12.7071 5.29487 12.334 4.83464 12.334C4.3744 12.334 4.0013 12.7071 4.0013 13.1673C4.0013 13.6276 4.3744 14.0007 4.83464 14.0007Z" fill="#9B9DA3"/>
<path fill-rule="evenodd" clip-rule="evenodd" d="M4.83464 0.458984C5.17981 0.458984 5.45964 0.738806 5.45964 1.08398V1.71958C6.0113 1.70897 6.61908 1.70898 7.28752 1.70898H10.715C11.3834 1.70898 11.9913 1.70897 12.543 1.71958V1.08398C12.543 0.738806 12.8228 0.458984 13.168 0.458984C13.5131 0.458984 13.793 0.738806 13.793 1.08398V1.77322C14.0096 1.78974 14.2147 1.8105 14.4088 1.8366C15.3858 1.96795 16.1766 2.24472 16.8003 2.86835C17.4239 3.49199 17.7007 4.28278 17.832 5.2598C17.9597 6.20914 17.9596 7.42215 17.9596 8.9536V10.7143C17.9596 12.2458 17.9597 13.4588 17.832 14.4082C17.7007 15.3852 17.4239 16.176 16.8003 16.7996C16.1766 17.4233 15.3858 17.7 14.4088 17.8314C13.4595 17.959 12.2465 17.959 10.715 17.959H7.28763C5.75618 17.959 4.54312 17.959 3.59378 17.8314C2.61677 17.7 1.82597 17.4233 1.20234 16.7996C0.578702 16.176 0.301938 15.3852 0.170581 14.4082C0.0429456 13.4588 0.0429559 12.2458 0.042969 10.7143V8.95364C0.0429559 7.42217 0.0429456 6.20914 0.170581 5.2598C0.301938 4.28278 0.578702 3.49199 1.20234 2.86835C1.82597 2.24472 2.61677 1.96795 3.59378 1.8366C3.78789 1.8105 3.99302 1.78974 4.20964 1.77322V1.08398C4.20964 0.738806 4.48946 0.458984 4.83464 0.458984ZM3.76034 3.07545C2.92194 3.18817 2.4389 3.39956 2.08622 3.75224C1.73355 4.10491 1.52216 4.58795 1.40943 5.42636C1.39035 5.56835 1.37438 5.71783 1.36104 5.87565H16.6416C16.6282 5.71783 16.6123 5.56835 16.5932 5.42636C16.4804 4.58795 16.2691 4.10491 15.9164 3.75224C15.5637 3.39956 15.0807 3.18817 14.2423 3.07545C13.3859 2.96031 12.257 2.95898 10.668 2.95898H7.33464C5.74562 2.95898 4.61673 2.96031 3.76034 3.07545ZM1.29297 9.00065C1.29297 8.28897 1.29324 7.66959 1.30387 7.12565H16.6987C16.7094 7.66959 16.7096 8.28897 16.7096 9.00065V10.6673C16.7096 12.2563 16.7083 13.3852 16.5932 14.2416C16.4804 15.08 16.2691 15.5631 15.9164 15.9157C15.5637 16.2684 15.0807 16.4798 14.2423 16.5925C13.3859 16.7077 12.257 16.709 10.668 16.709H7.33464C5.74562 16.709 4.61673 16.7077 3.76034 16.5925C2.92194 16.4798 2.4389 16.2684 2.08622 15.9157C1.73355 15.5631 1.52216 15.08 1.40943 14.2416C1.2943 13.3852 1.29297 12.2563 1.29297 10.6673V9.00065Z" fill="#9B9DA3"/>
</svg>
