<svg width="19" height="18" viewBox="0 0 19 18" fill="none" xmlns="http://www.w3.org/2000/svg">
<path fill-rule="evenodd" clip-rule="evenodd" d="M8.87464 0.0410166H10.628C11.3767 0.0409921 12.001 0.0409717 12.4967 0.10761C13.0199 0.177947 13.4922 0.332673 13.8718 0.712231C14.2513 1.09179 14.406 1.56412 14.4764 2.08728C14.4953 2.22817 14.5089 2.37946 14.5186 2.54104C15.0097 2.54133 15.4249 2.54453 15.7671 2.57934C16.1617 2.61947 16.5278 2.70674 16.8578 2.92723C17.108 3.09443 17.3229 3.30928 17.4901 3.5595C17.7106 3.8895 17.7978 4.25564 17.838 4.6502C17.8763 5.02715 17.8763 5.49276 17.8763 6.05075V16.7077H18.0846C18.4298 16.7077 18.7096 16.9875 18.7096 17.3327C18.7096 17.6779 18.4298 17.9577 18.0846 17.9577H1.41797C1.07279 17.9577 0.792969 17.6779 0.792969 17.3327C0.792969 16.9875 1.07279 16.7077 1.41797 16.7077H1.6263L1.6263 6.05073C1.62629 5.49275 1.62628 5.02714 1.66462 4.6502C1.70476 4.25564 1.79202 3.8895 2.01252 3.5595C2.17971 3.30927 2.39456 3.09443 2.64479 2.92723C2.97478 2.70674 3.34092 2.61947 3.73549 2.57934C4.07767 2.54453 4.49293 2.54133 4.98403 2.54104C4.99373 2.37946 5.00729 2.22817 5.02623 2.08728C5.09657 1.56412 5.25129 1.09179 5.63085 0.712231C6.01041 0.332673 6.48274 0.177947 7.0059 0.10761C7.50155 0.0409717 8.1259 0.0409921 8.87464 0.0410166ZM4.95966 3.7911C4.47415 3.79164 4.13119 3.79553 3.86199 3.82292C3.56627 3.853 3.42963 3.90618 3.33925 3.96657C3.22551 4.04257 3.12785 4.14023 3.05185 4.25397C2.99147 4.34434 2.93829 4.48098 2.9082 4.77671C2.87706 5.08288 2.8763 5.48448 2.8763 6.08268V16.7077H4.95964V11.291H4.33464C3.98946 11.291 3.70964 11.0112 3.70964 10.666C3.70964 10.3208 3.98946 10.041 4.33464 10.041H4.95964V8.79102H4.33464C3.98946 8.79102 3.70964 8.51119 3.70964 8.16602C3.70964 7.82084 3.98946 7.54102 4.33464 7.54102H4.95964V6.29102H4.33464C3.98946 6.29102 3.70964 6.0112 3.70964 5.66602C3.70964 5.32084 3.98946 5.04102 4.33464 5.04102H4.95964L4.95963 3.95602C4.95963 3.90036 4.95963 3.84539 4.95966 3.7911ZM6.20964 16.7077H9.1263V14.8327C9.1263 14.4875 9.40612 14.2077 9.7513 14.2077C10.0965 14.2077 10.3763 14.4875 10.3763 14.8327V16.7077H13.293V3.99935C13.293 3.19601 13.2916 2.65637 13.2375 2.25384C13.1858 1.86929 13.0965 1.70471 12.9879 1.59611C12.8793 1.48752 12.7147 1.39817 12.3301 1.34646C11.9276 1.29234 11.388 1.29102 10.5846 1.29102H8.91797C8.11463 1.29102 7.57499 1.29234 7.17246 1.34646C6.78791 1.39817 6.62333 1.48752 6.51473 1.59611C6.40614 1.70471 6.31678 1.86929 6.26508 2.25384C6.21096 2.65637 6.20964 3.19601 6.20964 3.99935V16.7077ZM14.543 6.29102H15.168C15.5131 6.29102 15.793 6.0112 15.793 5.66602C15.793 5.32084 15.5131 5.04102 15.168 5.04102H14.543L14.543 3.95602C14.543 3.90036 14.543 3.84539 14.5429 3.7911C15.0284 3.79164 15.3714 3.79553 15.6406 3.82292C15.9363 3.853 16.073 3.90618 16.1634 3.96657C16.2771 4.04257 16.3747 4.14022 16.4507 4.25397C16.5111 4.34434 16.5643 4.48098 16.5944 4.77671C16.6255 5.08288 16.6263 5.48448 16.6263 6.08268V16.7077H14.543V11.291H15.168C15.5131 11.291 15.793 11.0112 15.793 10.666C15.793 10.3208 15.5131 10.041 15.168 10.041H14.543V8.79102H15.168C15.5131 8.79102 15.793 8.51119 15.793 8.16602C15.793 7.82084 15.5131 7.54102 15.168 7.54102H14.543V6.29102ZM9.7513 3.79102C9.17601 3.79102 8.70964 4.25739 8.70964 4.83268C8.70964 5.40798 9.17601 5.87435 9.7513 5.87435C10.3266 5.87435 10.793 5.40798 10.793 4.83268C10.793 4.25739 10.3266 3.79102 9.7513 3.79102ZM7.45964 4.83268C7.45964 3.56703 8.48565 2.54102 9.7513 2.54102C11.017 2.54102 12.043 3.56703 12.043 4.83268C12.043 6.09834 11.017 7.12435 9.7513 7.12435C8.48565 7.12435 7.45964 6.09834 7.45964 4.83268ZM7.45964 8.99935C7.45964 8.65417 7.73946 8.37435 8.08464 8.37435H11.418C11.7631 8.37435 12.043 8.65417 12.043 8.99935C12.043 9.34453 11.7631 9.62435 11.418 9.62435H8.08464C7.73946 9.62435 7.45964 9.34453 7.45964 8.99935ZM7.45964 11.4994C7.45964 11.1542 7.73946 10.8744 8.08464 10.8744H11.418C11.7631 10.8744 12.043 11.1542 12.043 11.4994C12.043 11.8445 11.7631 12.1244 11.418 12.1244H8.08464C7.73946 12.1244 7.45964 11.8445 7.45964 11.4994Z" fill="#A365ED"/>
</svg>
