<svg width="25" height="24" viewBox="0 0 25 24" fill="none" xmlns="http://www.w3.org/2000/svg">
<path d="M19.0734 14.1923L19.0735 14.1923L19.0726 14.1825C19.058 14.0322 19.116 13.8866 19.2184 13.7842L19.2186 13.7843L19.2279 13.7745C19.3053 13.6928 19.4199 13.6406 19.5649 13.6406H21.0625C21.0687 13.6412 21.0727 13.6423 21.0749 13.6431V14.6399C21.074 14.6401 21.0728 14.6404 21.0711 14.6406H19.6249C19.3165 14.6406 19.0905 14.414 19.0734 14.1923Z" fill="white" stroke="white"/>
<path d="M17.0907 14.7979L17.0906 14.7979L17.0927 14.8052C17.4223 15.9844 18.5563 16.6906 19.7042 16.6906H20.5742C20.8481 16.6906 21.0742 16.9168 21.0742 17.1906V17.3806C21.0742 19.1745 19.6081 20.6406 17.8142 20.6406H6.33422C4.54036 20.6406 3.07422 19.1745 3.07422 17.3806V10.6506C3.07422 9.58415 3.58509 8.64031 4.37351 8.05115L4.37353 8.05117L4.37724 8.04834C4.92246 7.63294 5.59656 7.39062 6.33422 7.39062H17.8142C19.6081 7.39062 21.0742 8.85677 21.0742 10.6506V11.0906C21.0742 11.3645 20.8481 11.5906 20.5742 11.5906H19.5542C18.8623 11.5906 18.2245 11.8629 17.7601 12.3376C17.1408 12.9473 16.8434 13.858 17.0907 14.7979Z" fill="white" stroke="white"/>
<path d="M16.3241 4.82C16.5941 5.09 16.3641 5.51 15.9841 5.51L8.30408 5.5C7.86408 5.5 7.63408 4.96 7.95408 4.65L9.57408 3.02C10.9441 1.66 13.1641 1.66 14.5341 3.02L16.2841 4.79C16.2941 4.8 16.3141 4.81 16.3241 4.82Z" fill="white"/>
</svg>
