<svg width="103" height="90" viewBox="0 0 103 90" fill="none" xmlns="http://www.w3.org/2000/svg">
<path d="M21.1484 89.8096H81.0021C82.6472 89.8136 84.233 89.192 85.4417 88.0693C90.4838 83.3728 94.5175 77.6882 97.2948 71.3652C100.072 65.0422 101.534 58.2144 101.591 51.3018C101.849 23.194 79.1379 0.0664789 51.1978 0.000144672C23.2419 -0.0662271 0.558627 22.7131 0.558627 50.8225C0.550646 57.8186 1.98256 64.7407 4.76422 71.1528C7.54588 77.5649 11.617 83.3281 16.7213 88.0797C17.9274 89.1972 19.5087 89.8151 21.1484 89.8096Z" fill="url(#paint0_linear_1691_1824)"/>
<path d="M76.7674 16.5059H8.84819C5.22137 16.5059 2.28125 19.446 2.28125 23.0729V62.0114C2.28125 65.6382 5.22137 68.5784 8.84819 68.5784H76.7674C80.3942 68.5784 83.3344 65.6382 83.3344 62.0114V23.0729C83.3344 19.446 80.3942 16.5059 76.7674 16.5059Z" fill="#DBD4E3"/>
<path d="M76.7674 16.5059H8.84819C5.22137 16.5059 2.28125 19.446 2.28125 23.0729V62.0114C2.28125 65.6382 5.22137 68.5784 8.84819 68.5784H76.7674C80.3942 68.5784 83.3344 65.6382 83.3344 62.0114V23.0729C83.3344 19.446 80.3942 16.5059 76.7674 16.5059Z" fill="black" fill-opacity="0.05"/>
<path d="M95.8729 37.9277H27.9537C24.3268 37.9277 21.3867 40.8679 21.3867 44.4948V83.4333C21.3867 87.0601 24.3268 90.0003 27.9537 90.0003H95.8729C99.4997 90.0003 102.44 87.0601 102.44 83.4333V44.4948C102.44 40.8679 99.4997 37.9277 95.8729 37.9277Z" fill="#DBD4E3"/>
<path d="M75.4823 16.5059H7.56303C3.93621 16.5059 0.996094 19.446 0.996094 23.0729V62.0114C0.996094 65.6382 3.93621 68.5784 7.56303 68.5784H75.4823C79.1091 68.5784 82.0492 65.6382 82.0492 62.0114V23.0729C82.0492 19.446 79.1091 16.5059 75.4823 16.5059Z" fill="#DBD4E3"/>
<path d="M82.0492 27.6797H0.996094V39.593H82.0492V27.6797Z" fill="#A365ED"/>
<path d="M94.5838 37.9277H26.6646C23.0378 37.9277 20.0977 40.8679 20.0977 44.4948V83.4333C20.0977 87.0601 23.0378 90.0003 26.6646 90.0003H94.5838C98.2106 90.0003 101.151 87.0601 101.151 83.4333V44.4948C101.151 40.8679 98.2106 37.9277 94.5838 37.9277Z" fill="#EAE5F1"/>
<path d="M40.1256 49.8945H28.6451C27.8725 49.8945 27.2461 50.5209 27.2461 51.2936V51.2936C27.2461 52.0663 27.8725 52.6927 28.6451 52.6927H40.1256C40.8983 52.6927 41.5247 52.0663 41.5247 51.2936V51.2936C41.5247 50.5209 40.8983 49.8945 40.1256 49.8945Z" fill="#DBD4E3"/>
<path d="M57.6178 49.8945H46.1373C45.3647 49.8945 44.7383 50.5209 44.7383 51.2936V51.2936C44.7383 52.0663 45.3647 52.6927 46.1373 52.6927H57.6178C58.3905 52.6927 59.0169 52.0663 59.0169 51.2936V51.2936C59.0169 50.5209 58.3905 49.8945 57.6178 49.8945Z" fill="#DBD4E3"/>
<path d="M75.1139 49.8945H63.6334C62.8607 49.8945 62.2344 50.5209 62.2344 51.2936V51.2936C62.2344 52.0663 62.8607 52.6927 63.6334 52.6927H75.1139C75.8866 52.6927 76.513 52.0663 76.513 51.2936C76.513 50.5209 75.8866 49.8945 75.1139 49.8945Z" fill="#DBD4E3"/>
<path d="M92.61 49.8945H81.1295C80.3568 49.8945 79.7305 50.5209 79.7305 51.2936V51.2936C79.7305 52.0663 80.3568 52.6927 81.1295 52.6927H92.61C93.3827 52.6927 94.0091 52.0663 94.0091 51.2936V51.2936C94.0091 50.5209 93.3827 49.8945 92.61 49.8945Z" fill="#DBD4E3"/>
<path d="M78.5121 83.704C81.8778 83.704 84.6062 80.9755 84.6062 77.6098C84.6062 74.2441 81.8778 71.5156 78.5121 71.5156C75.1464 71.5156 72.418 74.2441 72.418 77.6098C72.418 80.9755 75.1464 83.704 78.5121 83.704Z" fill="#A365ED"/>
<path opacity="0.15" d="M78.5121 83.704C81.8778 83.704 84.6062 80.9755 84.6062 77.6098C84.6062 74.2441 81.8778 71.5156 78.5121 71.5156C75.1464 71.5156 72.418 74.2441 72.418 77.6098C72.418 80.9755 75.1464 83.704 78.5121 83.704Z" fill="black"/>
<path d="M87.9144 83.704C91.2801 83.704 94.0085 80.9755 94.0085 77.6098C94.0085 74.2441 91.2801 71.5156 87.9144 71.5156C84.5487 71.5156 81.8203 74.2441 81.8203 77.6098C81.8203 80.9755 84.5487 83.704 87.9144 83.704Z" fill="#A365ED"/>
<path d="M43.6992 71.5156H29.0141C28.0377 71.5156 27.2461 72.3072 27.2461 73.2837V81.9359C27.2461 82.9124 28.0377 83.704 29.0141 83.704H43.6992C44.6756 83.704 45.4672 82.9124 45.4672 81.9359V73.2837C45.4672 72.3072 44.6756 71.5156 43.6992 71.5156Z" fill="#DBD4E3"/>
<defs>
<linearGradient id="paint0_linear_1691_1824" x1="51.0759" y1="0" x2="51.0759" y2="89.8097" gradientUnits="userSpaceOnUse">
<stop stop-color="#FBFDFE"/>
<stop offset="1" stop-color="#F5F0FA"/>
</linearGradient>
</defs>
</svg>
