<svg width="26" height="24" viewBox="0 0 26 24" fill="none" xmlns="http://www.w3.org/2000/svg">
<g clip-path="url(#clip0_2158_7365)">
<path d="M1.494 19.5V6.09H6.228C7.116 6.09 7.896 6.258 8.568 6.594C9.24 6.93 9.762 7.41 10.134 8.034C10.518 8.658 10.71 9.39 10.71 10.23C10.71 11.178 10.47 11.982 9.99 12.642C9.51 13.302 8.862 13.776 8.046 14.064L11.16 19.5H9.108L5.832 13.686L7.002 14.37H3.258V19.5H1.494ZM3.258 12.75H6.282C6.81 12.75 7.272 12.648 7.668 12.444C8.064 12.24 8.37 11.946 8.586 11.562C8.814 11.178 8.928 10.734 8.928 10.23C8.928 9.714 8.814 9.27 8.586 8.898C8.37 8.514 8.064 8.22 7.668 8.016C7.272 7.812 6.81 7.71 6.282 7.71H3.258V12.75ZM18.9799 19.716C18.0319 19.716 17.1559 19.548 16.3519 19.212C15.5599 18.864 14.8639 18.378 14.2639 17.754C13.6759 17.13 13.2199 16.398 12.8959 15.558C12.5719 14.718 12.4099 13.8 12.4099 12.804C12.4099 11.796 12.5719 10.872 12.8959 10.032C13.2199 9.192 13.6759 8.46 14.2639 7.836C14.8519 7.212 15.5479 6.732 16.3519 6.396C17.1559 6.048 18.0319 5.874 18.9799 5.874C19.9039 5.874 20.7319 6.036 21.4639 6.36C22.2079 6.684 22.8319 7.104 23.3359 7.62C23.8519 8.136 24.2179 8.688 24.4339 9.276L22.8139 10.014C22.5019 9.27 22.0159 8.67 21.3559 8.214C20.6959 7.746 19.9039 7.512 18.9799 7.512C18.0439 7.512 17.2099 7.734 16.4779 8.178C15.7579 8.622 15.1939 9.24 14.7859 10.032C14.3779 10.824 14.1739 11.748 14.1739 12.804C14.1739 13.848 14.3779 14.766 14.7859 15.558C15.1939 16.35 15.7579 16.968 16.4779 17.412C17.2099 17.856 18.0439 18.078 18.9799 18.078C19.9039 18.078 20.6959 17.85 21.3559 17.394C22.0159 16.926 22.5019 16.32 22.8139 15.576L24.4339 16.314C24.2179 16.902 23.8519 17.454 23.3359 17.97C22.8319 18.486 22.2079 18.906 21.4639 19.23C20.7319 19.554 19.9039 19.716 18.9799 19.716Z" fill="#A365ED"/>
<path d="M16 20L20.127 5" stroke="#A365ED" stroke-width="1.5" stroke-miterlimit="10"/>
</g>
<defs>
<clipPath id="clip0_2158_7365">
<rect width="26" height="23" fill="white" transform="translate(0 0.5)"/>
</clipPath>
</defs>
</svg>
