<svg width="25" height="24" viewBox="0 0 25 24" fill="none" xmlns="http://www.w3.org/2000/svg">
<path d="M14.375 4H10.375C6.60376 4 4.71815 4 3.54657 5.17157C2.70303 6.01511 2.46685 7.22882 2.40072 9.25H22.3493C22.2832 7.22882 22.047 6.01511 21.2034 5.17157C20.0319 4 18.1462 4 14.375 4Z" fill="white"/>
<path fill-rule="evenodd" clip-rule="evenodd" d="M14.375 20H10.375C6.60376 20 4.71815 20 3.54657 18.8284C2.375 17.6569 2.375 15.7712 2.375 12C2.375 11.5581 2.375 11.142 2.37689 10.75H22.3731C22.375 11.142 22.375 11.5581 22.375 12C22.375 15.7712 22.375 17.6569 21.2034 18.8284C20.0319 20 18.1462 20 14.375 20ZM16.4197 12.25C16.8526 12.2499 17.2494 12.2499 17.5722 12.2933C17.9277 12.3411 18.3034 12.4535 18.6124 12.7626C18.9215 13.0716 19.0339 13.4473 19.0817 13.8028C19.1251 14.1256 19.1251 14.5224 19.125 14.9553V15.0447C19.1251 15.4776 19.1251 15.8744 19.0817 16.1972C19.0339 16.5527 18.9215 16.9284 18.6124 17.2374C18.3034 17.5465 17.9277 17.6589 17.5722 17.7067C17.2494 17.7501 16.8526 17.7501 16.4197 17.75L16.375 17.75L16.3303 17.75C15.8974 17.7501 15.5006 17.7501 15.1778 17.7067C14.8223 17.6589 14.4466 17.5465 14.1376 17.2374C13.8285 16.9284 13.7161 16.5527 13.6683 16.1972C13.6249 15.8744 13.6249 15.4776 13.625 15.0447L13.625 15L13.625 14.9553C13.6249 14.5224 13.6249 14.1256 13.6683 13.8028C13.7161 13.4473 13.8285 13.0716 14.1376 12.7626C14.4466 12.4535 14.8223 12.3411 15.1778 12.2933C15.5006 12.2499 15.8974 12.2499 16.3303 12.25H16.4197ZM5.625 13.5C5.625 13.0858 5.96079 12.75 6.375 12.75H8.375C8.78921 12.75 9.125 13.0858 9.125 13.5C9.125 13.9142 8.78921 14.25 8.375 14.25H6.375C5.96079 14.25 5.625 13.9142 5.625 13.5ZM5.625 16.5C5.625 16.0858 5.96079 15.75 6.375 15.75H10.375C10.7892 15.75 11.125 16.0858 11.125 16.5C11.125 16.9142 10.7892 17.25 10.375 17.25H6.375C5.96079 17.25 5.625 16.9142 5.625 16.5Z" fill="white"/>
<path d="M15.1983 13.8232L15.2007 13.8219C15.2026 13.8209 15.2059 13.8192 15.211 13.8172C15.2327 13.8082 15.2811 13.7929 15.3777 13.7799C15.5884 13.7516 15.8824 13.75 16.375 13.75C16.8676 13.75 17.1616 13.7516 17.3723 13.7799C17.4689 13.7929 17.5173 13.8082 17.539 13.8172C17.5441 13.8192 17.5474 13.8209 17.5493 13.8219L17.5518 13.8232L17.5531 13.8257C17.5541 13.8276 17.5558 13.8309 17.5578 13.836C17.5668 13.8577 17.5821 13.9061 17.5951 14.0027C17.6234 14.2134 17.625 14.5074 17.625 15C17.625 15.4926 17.6234 15.7866 17.5951 15.9973C17.5821 16.0939 17.5668 16.1423 17.5578 16.164C17.5558 16.1691 17.5541 16.1724 17.5531 16.1743L17.5518 16.1768L17.5493 16.1781C17.5474 16.1791 17.5441 16.1808 17.539 16.1828C17.5173 16.1918 17.4689 16.2071 17.3723 16.2201C17.1616 16.2484 16.8676 16.25 16.375 16.25C15.8824 16.25 15.5884 16.2484 15.3777 16.2201C15.2811 16.2071 15.2327 16.1918 15.211 16.1828C15.2059 16.1808 15.2026 16.1791 15.2007 16.1781L15.1982 16.1768L15.1969 16.1743C15.1959 16.1724 15.1942 16.1691 15.1922 16.164C15.1832 16.1423 15.1679 16.0939 15.1549 15.9973C15.1266 15.7866 15.125 15.4926 15.125 15C15.125 14.5074 15.1266 14.2134 15.1549 14.0027C15.1679 13.9061 15.1832 13.8577 15.1922 13.836C15.1942 13.8309 15.1959 13.8276 15.1969 13.8257L15.1983 13.8232Z" fill="white"/>
</svg>
