<svg width="65" height="61" viewBox="0 0 65 61" fill="none" xmlns="http://www.w3.org/2000/svg">
<path d="M13.2686 60.4997H51.7266C52.7836 60.5023 53.8026 60.1029 54.5792 59.3815C57.8189 56.3639 60.4107 52.7114 62.1952 48.6487C63.9796 44.586 64.9191 40.199 64.9556 35.7575C65.1215 17.6976 50.5288 2.83764 32.5764 2.79501C14.6138 2.75237 0.0390838 17.3886 0.0390838 35.4495C0.0339555 39.9447 0.954009 44.3923 2.74131 48.5123C4.52862 52.6322 7.14446 56.3352 10.4241 59.3882C11.1991 60.1062 12.2151 60.5032 13.2686 60.4997Z" fill="url(#paint0_linear_1865_6911)"/>
<path d="M31.0841 0.887249L9.66016 13.5766H55.3353L33.9114 0.887249C33.4834 0.633753 32.9952 0.5 32.4977 0.5C32.0003 0.5 31.512 0.633753 31.0841 0.887249Z" fill="#DBD4E3"/>
<path d="M31.7771 2.19973L15.4766 11.8546H49.5217L33.2211 2.19973C33.0026 2.07026 32.7532 2.00195 32.4991 2.00195C32.2451 2.00195 31.9957 2.07026 31.7771 2.19973Z" fill="#EAE5F1"/>
<path d="M9.07031 20.0957H16.9644V22.5982C16.9644 22.7157 16.9177 22.8283 16.8346 22.9114C16.7516 22.9944 16.6389 23.0411 16.5214 23.0411H9.51323C9.39576 23.0411 9.2831 22.9944 9.20004 22.9114C9.11698 22.8283 9.07031 22.7157 9.07031 22.5982V20.0957Z" fill="#DBD4E3"/>
<path d="M8.11089 48.0293H17.9273C18.0448 48.0293 18.1574 48.076 18.2405 48.159C18.3236 48.2421 18.3702 48.3547 18.3702 48.4722V50.9747H7.66797V48.4722C7.66797 48.3547 7.71463 48.2421 7.7977 48.159C7.88076 48.076 7.99342 48.0293 8.11089 48.0293Z" fill="#DBD4E3"/>
<path d="M15.6605 23.041H10.3739L9.07031 48.0301H16.9643L15.6605 23.041Z" fill="#EAE5F1"/>
<path d="M22.0586 20.0957H29.9526V22.5982C29.9526 22.7157 29.906 22.8283 29.8229 22.9114C29.7399 22.9944 29.6272 23.0411 29.5097 23.0411H22.5015C22.384 23.0411 22.2714 22.9944 22.1883 22.9114C22.1053 22.8283 22.0586 22.7157 22.0586 22.5982V20.0957Z" fill="#DBD4E3"/>
<path d="M21.0953 48.0293H30.9117C31.0292 48.0293 31.1418 48.076 31.2249 48.159C31.3079 48.2421 31.3546 48.3547 31.3546 48.4722V50.9747H20.6523V48.4722C20.6523 48.414 20.6638 48.3565 20.6861 48.3027C20.7083 48.249 20.7409 48.2001 20.7821 48.159C20.8232 48.1179 20.872 48.0853 20.9258 48.063C20.9795 48.0408 21.0371 48.0293 21.0953 48.0293Z" fill="#DBD4E3"/>
<path d="M28.6488 23.041H23.3622L22.0586 48.0301H29.9526L28.6488 23.041Z" fill="#EAE5F1"/>
<path d="M35.043 20.0957H42.937V22.5982C42.937 22.7157 42.8904 22.8283 42.8073 22.9114C42.7242 22.9944 42.6116 23.0411 42.4941 23.0411H35.4859C35.3684 23.0411 35.2558 22.9944 35.1727 22.9114C35.0896 22.8283 35.043 22.7157 35.043 22.5982V20.0957Z" fill="#DBD4E3"/>
<path d="M34.0835 48.0293H43.9C44.0174 48.0293 44.1301 48.076 44.2131 48.159C44.2962 48.2421 44.3429 48.3547 44.3429 48.4722V50.9747H33.6406V48.4722C33.6406 48.3547 33.6873 48.2421 33.7703 48.159C33.8534 48.076 33.9661 48.0293 34.0835 48.0293Z" fill="#DBD4E3"/>
<path d="M41.6333 23.041H36.3467L35.043 48.0301H42.937L41.6333 23.041Z" fill="#EAE5F1"/>
<path d="M48.0312 20.0957H55.9253V22.5982C55.9253 22.7157 55.8786 22.8283 55.7956 22.9114C55.7125 22.9944 55.5999 23.0411 55.4824 23.0411H48.4742C48.3567 23.0411 48.244 22.9944 48.161 22.9114C48.0779 22.8283 48.0312 22.7157 48.0312 22.5982V20.0957Z" fill="#DBD4E3"/>
<path d="M47.0718 48.0293H56.8882C57.0057 48.0293 57.1184 48.076 57.2014 48.159C57.2845 48.2421 57.3312 48.3547 57.3312 48.4722V50.9747H46.6289V48.4722C46.6289 48.3547 46.6756 48.2421 46.7586 48.159C46.8417 48.076 46.9544 48.0293 47.0718 48.0293Z" fill="#DBD4E3"/>
<path d="M54.6216 23.041H49.335L48.0312 48.0301H55.9252L54.6216 23.041Z" fill="#EAE5F1"/>
<path d="M6.46484 17.3125H58.529V19.5256C58.529 19.6768 58.4689 19.8219 58.362 19.9288C58.255 20.0357 58.11 20.0958 57.9587 20.0958H7.03507C6.88384 20.0958 6.7388 20.0357 6.63186 19.9288C6.52492 19.8219 6.46484 19.6768 6.46484 19.5256V17.3125Z" fill="#EAE5F1"/>
<path d="M55.563 11.4688H9.43084C9.01214 11.4687 8.60534 11.608 8.27445 11.8645C7.94356 12.1211 7.70738 12.4804 7.60309 12.8859L6.46484 17.3115H58.529L57.3907 12.8859C57.2864 12.4804 57.0503 12.1211 56.7194 11.8645C56.3885 11.608 55.9817 11.4687 55.563 11.4688Z" fill="#EAE5F1"/>
<path d="M58.7774 17.3125H6.21466C6.04001 17.3125 5.89844 17.4541 5.89844 17.6287V17.8568C5.89844 18.0314 6.04001 18.173 6.21466 18.173H58.7774C58.952 18.173 59.0936 18.0314 59.0936 17.8568V17.6287C59.0936 17.4541 58.952 17.3125 58.7774 17.3125Z" fill="#A365ED"/>
<path d="M60.1398 50.9746H4.85547V55.2606H60.1398V50.9746Z" fill="#EAE5F1"/>
<path d="M60.2828 50.9746H4.71466C4.54001 50.9746 4.39844 51.1162 4.39844 51.2908V51.5189C4.39844 51.6935 4.54001 51.8351 4.71466 51.8351H60.2828C60.4575 51.8351 60.5991 51.6935 60.5991 51.5189V51.2908C60.5991 51.1162 60.4575 50.9746 60.2828 50.9746Z" fill="#DBD4E3"/>
<path d="M61.6414 55.2617H3.35156V59.5478H61.6414V55.2617Z" fill="#EAE5F1"/>
<path d="M61.7844 55.2617H3.21075C3.03611 55.2617 2.89453 55.4033 2.89453 55.5779V55.806C2.89453 55.9806 3.03611 56.1222 3.21075 56.1222H61.7844C61.959 56.1222 62.1006 55.9806 62.1006 55.806V55.5779C62.1006 55.4033 61.959 55.2617 61.7844 55.2617Z" fill="#DBD4E3"/>
<path d="M61.7844 59.5469H3.21075C3.03611 59.5469 2.89453 59.6884 2.89453 59.8631V60.0911C2.89453 60.2658 3.03611 60.4074 3.21075 60.4074H61.7844C61.959 60.4074 62.1006 60.2658 62.1006 60.0911V59.8631C62.1006 59.6884 61.959 59.5469 61.7844 59.5469Z" fill="#DBD4E3"/>
<path d="M32.499 13.5996C34.8888 13.5996 36.8261 11.6623 36.8261 9.27244C36.8261 6.88264 34.8888 4.94531 32.499 4.94531C30.1092 4.94531 28.1719 6.88264 28.1719 9.27244C28.1719 11.6623 30.1092 13.5996 32.499 13.5996Z" fill="#A365ED"/>
<path d="M55.563 11.4688H9.43084C9.01214 11.4687 8.60534 11.608 8.27445 11.8645C7.94356 12.1211 7.70738 12.4804 7.60309 12.8859L6.46484 17.3115H58.529L57.3907 12.8859C57.2864 12.4804 57.0503 12.1211 56.7194 11.8645C56.3885 11.608 55.9817 11.4687 55.563 11.4688Z" fill="#DBD4E3"/>
<defs>
<linearGradient id="paint0_linear_1865_6911" x1="32.4981" y1="2.79492" x2="32.4981" y2="60.4997" gradientUnits="userSpaceOnUse">
<stop stop-color="#FCFBFE"/>
<stop offset="1" stop-color="#F5F0FA"/>
</linearGradient>
</defs>
</svg>
