<svg width="14" height="14" viewBox="0 0 14 14" fill="none" xmlns="http://www.w3.org/2000/svg">
<g clip-path="url(#clip0_2309_4885)">
<path fill-rule="evenodd" clip-rule="evenodd" d="M7.0013 0.728516C6.64854 0.728516 6.32373 0.816183 5.96809 0.963261C5.62468 1.10528 5.22583 1.3146 4.72916 1.57524L3.52311 2.20815C2.91355 2.52802 2.42573 2.78401 2.04908 3.03555C1.65887 3.29614 1.35832 3.57052 1.13946 3.9422C0.921324 4.31264 0.823194 4.71376 0.776137 5.19144C0.73046 5.6551 0.730464 6.22535 0.730469 6.94251V7.05618C0.730464 7.77334 0.73046 8.3436 0.776137 8.80726C0.823194 9.28494 0.921324 9.68606 1.13946 10.0565C1.35832 10.4282 1.65887 10.7026 2.04908 10.9632C2.42571 11.2147 2.91349 11.4706 3.52302 11.7905L4.72914 12.4234C5.2258 12.6841 5.62468 12.8934 5.96809 13.0354C6.32373 13.1825 6.64854 13.2702 7.0013 13.2702C7.35406 13.2702 7.67887 13.1825 8.03452 13.0354C8.37792 12.8934 8.77677 12.6841 9.27343 12.4235L10.4795 11.7906C11.0891 11.4707 11.5769 11.2147 11.9535 10.9632C12.3437 10.7026 12.6443 10.4282 12.8631 10.0565C13.0813 9.68606 13.1794 9.28494 13.2265 8.80726C13.2721 8.3436 13.2721 7.77335 13.2721 7.0562V6.9425C13.2721 6.22535 13.2721 5.6551 13.2265 5.19144C13.1794 4.71376 13.0813 4.31264 12.8631 3.9422C12.6443 3.57052 12.3437 3.29614 11.9535 3.03555C11.5769 2.78401 11.0891 2.52802 10.4795 2.20814L9.27346 1.57525C8.77679 1.3146 8.37793 1.10528 8.03452 0.963262C7.67887 0.816183 7.35406 0.728516 7.0013 0.728516ZM5.1176 2.35956C5.6366 2.0872 6.0003 1.89681 6.30248 1.77184C6.59661 1.65021 6.80324 1.60352 7.0013 1.60352C7.19937 1.60352 7.406 1.65021 7.70012 1.77184C8.0023 1.89681 8.366 2.0872 8.885 2.35956L10.0517 2.9718C10.6873 3.30538 11.1339 3.54037 11.4676 3.76321C11.6322 3.87314 11.7616 3.97522 11.866 4.07786L7.0013 6.51021L2.13662 4.07786C2.24105 3.97522 2.3704 3.87314 2.53502 3.76321C2.8687 3.54037 3.31528 3.30538 3.95094 2.9718L5.1176 2.35956ZM1.71495 4.84531C1.68549 4.97008 1.66322 5.11175 1.64692 5.27722C1.60596 5.69303 1.60547 6.22025 1.60547 6.96523V7.03347C1.60547 7.77844 1.60596 8.30567 1.64692 8.72148C1.68698 9.12816 1.7631 9.39114 1.89344 9.6125C2.02306 9.83262 2.21054 10.0188 2.53502 10.2355C2.8687 10.4583 3.31528 10.6933 3.95094 11.0269L5.1176 11.6391C5.6366 11.9115 6.0003 12.1019 6.30248 12.2269C6.3979 12.2663 6.48411 12.2979 6.5638 12.3225V7.26974L1.71495 4.84531ZM7.4388 12.3225C7.5185 12.2979 7.6047 12.2663 7.70012 12.2269C8.0023 12.1019 8.366 11.9115 8.885 11.6391L10.0517 11.0269C10.6873 10.6933 11.1339 10.4583 11.4676 10.2355C11.7921 10.0188 11.9795 9.83262 12.1092 9.6125C12.2395 9.39114 12.3156 9.12816 12.3557 8.72148C12.3966 8.30567 12.3971 7.77844 12.3971 7.03347V6.96523C12.3971 6.22025 12.3966 5.69303 12.3557 5.27722C12.3394 5.11175 12.3171 4.97008 12.2877 4.84531L7.4388 7.26974V12.3225Z" fill="#A365ED"/>
</g>
<defs>
<clipPath id="clip0_2309_4885">
<rect width="14" height="14" fill="white"/>
</clipPath>
</defs>
</svg>
