<svg width="25" height="24" viewBox="0 0 25 24" fill="none" xmlns="http://www.w3.org/2000/svg">
<path d="M21.0833 7.81945L13.3833 12.2795C13.0733 12.4595 12.6833 12.4595 12.3633 12.2795L4.66326 7.81945C4.11326 7.49945 3.97326 6.74945 4.39326 6.27945C4.68326 5.94945 5.01326 5.67945 5.36326 5.48945L10.7833 2.48945C11.9433 1.83945 13.8233 1.83945 14.9833 2.48945L20.4033 5.48945C20.7533 5.67945 21.0833 5.95945 21.3733 6.27945C21.7733 6.74945 21.6333 7.49945 21.0833 7.81945Z" fill="white"/>
<path d="M12.3055 14.1409V20.9609C12.3055 21.7209 11.5355 22.2209 10.8555 21.8909C8.79547 20.8809 5.32547 18.9909 5.32547 18.9909C4.10547 18.3009 3.10547 16.5609 3.10547 15.1309V9.97086C3.10547 9.18086 3.93547 8.68086 4.61547 9.07086L11.8055 13.2409C12.1055 13.4309 12.3055 13.7709 12.3055 14.1409Z" fill="white"/>
<path d="M13.4453 14.1409V20.9609C13.4453 21.7209 14.2153 22.2209 14.8953 21.8909C16.9553 20.8809 20.4253 18.9909 20.4253 18.9909C21.6453 18.3009 22.6453 16.5609 22.6453 15.1309V9.97086C22.6453 9.18086 21.8153 8.68086 21.1353 9.07086L13.9453 13.2409C13.6453 13.4309 13.4453 13.7709 13.4453 14.1409Z" fill="white"/>
</svg>
