<svg width="20" height="20" viewBox="0 0 20 20" fill="none" xmlns="http://www.w3.org/2000/svg">
<path fill-rule="evenodd" clip-rule="evenodd" d="M2.70703 8.45209C2.70703 4.36958 5.96121 1.04102 9.9987 1.04102C14.0362 1.04102 17.2904 4.36958 17.2904 8.45209C17.2904 10.423 16.7287 12.5393 15.7357 14.3676C14.744 16.1936 13.2951 17.7804 11.4825 18.6276C10.5408 19.0677 9.45656 19.0677 8.51494 18.6276C6.70234 17.7804 5.25338 16.1936 4.26166 14.3676C3.26872 12.5393 2.70703 10.423 2.70703 8.45209ZM9.9987 2.29102C6.67239 2.29102 3.95703 5.03892 3.95703 8.45209C3.95703 10.1997 4.45923 12.1122 5.36012 13.771C6.26223 15.4321 7.53705 16.7907 9.04424 17.4952C9.65041 17.7785 10.347 17.7785 10.9532 17.4952C12.4603 16.7907 13.7352 15.4321 14.6373 13.771C15.5382 12.1122 16.0404 10.1997 16.0404 8.45209C16.0404 5.03892 13.325 2.29102 9.9987 2.29102ZM9.9987 6.45768C8.96316 6.45768 8.1237 7.29715 8.1237 8.33268C8.1237 9.36822 8.96316 10.2077 9.9987 10.2077C11.0342 10.2077 11.8737 9.36822 11.8737 8.33268C11.8737 7.29715 11.0342 6.45768 9.9987 6.45768ZM6.8737 8.33268C6.8737 6.60679 8.27281 5.20768 9.9987 5.20768C11.7246 5.20768 13.1237 6.60679 13.1237 8.33268C13.1237 10.0586 11.7246 11.4577 9.9987 11.4577C8.27281 11.4577 6.8737 10.0586 6.8737 8.33268Z" fill="#9B9DA3"/>
</svg>
