<svg width="16" height="16" viewBox="0 0 16 16" fill="none" xmlns="http://www.w3.org/2000/svg">
<path d="M8.67073 10.4812C8.67073 10.8512 8.37076 11.1512 8.00073 11.1512C7.6307 11.1512 7.33073 10.8512 7.33073 10.4812C7.33073 10.1112 7.6307 9.8112 8.00073 9.8112C8.37076 9.8112 8.67073 10.1112 8.67073 10.4812Z" fill="#AD76EF" stroke="#AD76EF" stroke-width="0.833333"/>
<path d="M11.7726 6.35398V6.72181L12.1376 6.76743C13.0101 6.87649 13.4947 7.13914 13.7871 7.56002C14.0974 8.00683 14.2526 8.71499 14.2526 9.86065V11.1006C14.2526 12.4527 14.0397 13.191 13.6163 13.6144C13.1929 14.0377 12.4546 14.2506 11.1026 14.2506H4.9026C3.5506 14.2506 2.81226 14.0377 2.3889 13.6144C1.96553 13.191 1.7526 12.4527 1.7526 11.1006V9.86065C1.7526 8.71499 1.90779 8.00683 2.21815 7.56002C2.51049 7.13914 2.99513 6.87649 3.86762 6.76743L4.2326 6.72181V6.35398V5.52065C4.2326 4.63821 4.34288 3.703 4.84266 2.99191C5.32117 2.31108 6.22053 1.75065 8.0026 1.75065C9.78468 1.75065 10.684 2.31108 11.1625 2.99191C11.6623 3.703 11.7726 4.63821 11.7726 5.52065V6.35398ZM4.3326 6.29398V6.71065H4.48594V6.71732H4.9026H11.1026H11.1029H11.1032H11.1035H11.1039H11.1042H11.1045H11.1048H11.1051H11.1054H11.1057H11.106H11.1063H11.1067H11.107H11.1073H11.1076H11.1079H11.1082H11.1085H11.1088H11.1091H11.1094H11.1098H11.1101H11.1104H11.1107H11.111H11.1113H11.1116H11.1119H11.1122H11.1125H11.1128H11.1131H11.1135H11.1138H11.1141H11.1144H11.1147H11.115H11.1153H11.1156H11.1159H11.1162H11.1165H11.1168H11.1171H11.1174H11.1177H11.118H11.1184H11.1187H11.119H11.1193H11.1196H11.1199H11.1202H11.1205H11.1208H11.1211H11.1214H11.1217H11.122H11.1223H11.1226H11.1229H11.1232H11.1235H11.1238H11.1241H11.1244H11.1247H11.125H11.1253H11.1257H11.126H11.1263H11.1266H11.1269H11.1272H11.1275H11.1278H11.1281H11.1284H11.1287H11.129H11.1293H11.1296H11.1299H11.1302H11.1305H11.1308H11.1311H11.1314H11.1317H11.132H11.1323H11.1326H11.1329H11.1332H11.1335H11.1338H11.1341H11.1344H11.1347H11.135H11.1353H11.1356H11.1359H11.1362H11.1365H11.1368H11.1371H11.1374H11.1377H11.138H11.1383H11.1386H11.1389H11.1392H11.1395H11.1398H11.1401H11.1404H11.1407H11.141H11.1413H11.1416H11.1419H11.1422H11.1425H11.1428H11.143H11.1433H11.1436H11.1439H11.1442H11.1445H11.1448H11.1451H11.1454H11.1457H11.146H11.1463H11.1466H11.1469H11.1472H11.1475H11.1478H11.1481H11.1484H11.1487H11.149H11.1493H11.1496H11.1499H11.1502H11.1505H11.1508H11.1511H11.1514H11.1516H11.1519H11.1522H11.1525H11.1528H11.1531H11.1534H11.1537H11.154H11.1543H11.1546H11.1549H11.1552H11.1555H11.1558H11.1561H11.1564H11.1567H11.157H11.1573H11.1575H11.1578H11.1581H11.1584H11.1587H11.159H11.1593H11.1596H11.1599H11.1602H11.1605H11.1608H11.1611H11.1614H11.1617H11.162H11.1623H11.1626H11.1628H11.1631H11.1634H11.1637H11.164H11.1643H11.1646H11.1649H11.1652H11.1655H11.1658H11.1661H11.1664H11.1667H11.167H11.1673H11.1675H11.1678H11.1681H11.1684H11.1687H11.169H11.1693H11.1696H11.1699H11.1702H11.1705H11.1708H11.1711H11.1714H11.1717H11.1719H11.1722H11.1725H11.1728H11.1731H11.1734H11.1737H11.174H11.1743H11.1746H11.1749H11.1752H11.1755H11.1758H11.176H11.1763H11.1766H11.1769H11.1772H11.1775H11.1778H11.1781H11.1784H11.1787H11.179H11.1793H11.1796H11.1799H11.1801H11.1804H11.1807H11.181H11.1813H11.1816H11.1819H11.1822H11.1825H11.1828H11.1831H11.1834H11.1837H11.184H11.1843H11.1845H11.1848H11.1851H11.1854H11.1857H11.186H11.1863H11.1866H11.1869H11.1872H11.1875H11.1878H11.1881H11.1884H11.1886H11.1889H11.1892H11.1895H11.1898H11.1901H11.1904H11.1907H11.191H11.1913H11.1916H11.1919H11.1922H11.1925H11.1928H11.193H11.1933H11.1936H11.1939H11.1942H11.1945H11.1948H11.1951H11.1954H11.1957H11.196H11.1963H11.1966H11.1969H11.1972H11.1975H11.1978H11.198H11.1983H11.1986H11.1989H11.1992H11.1995H11.1998H11.2001H11.2004H11.2007H11.201H11.2013H11.2016H11.2019H11.2022H11.2025H11.2028H11.2031H11.2033H11.2036H11.2039H11.2042H11.2045H11.2048H11.2051H11.2054H11.2057H11.206H11.2063H11.2066H11.2069H11.2072H11.2075H11.2078H11.2081H11.2084H11.2087H11.209H11.2093H11.2096H11.2099H11.2101H11.2104H11.2107H11.211H11.2113H11.2116H11.2119H11.2122H11.2125H11.2128H11.2131H11.2134H11.2137H11.214H11.2143H11.2146H11.2149H11.2152H11.2155H11.2158H11.2161H11.2164H11.2167H11.217H11.2173H11.2176H11.2179H11.2182H11.2185H11.2188H11.2191H11.2194H11.2197H11.22H11.2203H11.2206H11.2209H11.2212H11.2215H11.2218H11.2221H11.2224H11.2227H11.223H11.2233H11.2236H11.2239H11.2241H11.2245H11.2247H11.225H11.2254H11.2257H11.226H11.2263H11.2266H11.2269H11.2272H11.2275H11.2278H11.2281H11.2284H11.2287H11.229H11.2293H11.2296H11.2299H11.2302H11.2305H11.2308H11.2311H11.2314H11.2317H11.232H11.2323H11.2326H11.2329H11.2332H11.2335H11.2338H11.2341H11.2344H11.2347H11.235H11.2353H11.2356H11.2359H11.2362H11.2365H11.2368H11.2371H11.2374H11.2377H11.238H11.2384H11.2387H11.239H11.2393H11.2396H11.2399H11.2402H11.2405H11.2408H11.2411H11.2414H11.2417H11.242H11.2423H11.2426H11.2429H11.2432H11.2436H11.2439H11.2442H11.2445H11.2448H11.2451H11.2454H11.2457H11.246H11.2463H11.2466H11.2469H11.2472H11.2476H11.2479H11.2482H11.2485H11.2488H11.2491H11.2494H11.2497H11.25H11.2503H11.2506H11.251H11.2513H11.2516H11.2519H11.2522H11.2525H11.2528H11.2531H11.2534H11.2538H11.2541H11.2544H11.2547H11.255H11.2553H11.2556H11.2559H11.6726V6.30065V5.52065C11.6726 4.52507 11.5366 3.58222 10.9614 2.89423C10.3721 2.18925 9.40989 1.85065 8.0026 1.85065C6.59531 1.85065 5.63315 2.18925 5.04377 2.89423C4.4686 3.58222 4.3326 4.52507 4.3326 5.52065V6.29398ZM5.5726 10.4807C5.5726 11.8165 6.65825 12.9107 8.0026 12.9107C9.34606 12.9107 10.4326 11.8241 10.4326 10.4807C10.4326 9.14387 9.33939 8.05065 8.0026 8.05065C6.66672 8.05065 5.5726 9.1363 5.5726 10.4807Z" fill="#AD76EF" stroke="#AD76EF" stroke-width="0.833333"/>
</svg>
