<svg width="17" height="16" viewBox="0 0 17 16" fill="none" xmlns="http://www.w3.org/2000/svg">
<path d="M10.4987 8.50065C10.7748 8.50065 10.9987 8.27679 10.9987 8.00065C10.9987 7.72451 10.7748 7.50065 10.4987 7.50065H6.4987C6.22256 7.50065 5.9987 7.72451 5.9987 8.00065C5.9987 8.27679 6.22256 8.50065 6.4987 8.50065H10.4987Z" fill="#A365ED"/>
<path fill-rule="evenodd" clip-rule="evenodd" d="M8.4987 0.833984C4.54066 0.833984 1.33203 4.04261 1.33203 8.00065C1.33203 11.9587 4.54066 15.1673 8.4987 15.1673C12.4567 15.1673 15.6654 11.9587 15.6654 8.00065C15.6654 4.04261 12.4567 0.833984 8.4987 0.833984ZM2.33203 8.00065C2.33203 4.5949 5.09294 1.83398 8.4987 1.83398C11.9045 1.83398 14.6654 4.5949 14.6654 8.00065C14.6654 11.4064 11.9045 14.1673 8.4987 14.1673C5.09294 14.1673 2.33203 11.4064 2.33203 8.00065Z" fill="#A365ED"/>
</svg>
