<svg width="25" height="24" viewBox="0 0 25 24" fill="none" xmlns="http://www.w3.org/2000/svg">
<path fill-rule="evenodd" clip-rule="evenodd" d="M12.448 1.25H12.552C13.4505 1.24997 14.1997 1.24995 14.7945 1.32991C15.4223 1.41432 15.9891 1.59999 16.4445 2.05546C16.9 2.51093 17.0857 3.07773 17.1701 3.70552C17.2292 4.14512 17.2446 4.66909 17.2486 5.27533C17.8971 5.29614 18.4752 5.33406 18.989 5.40314C20.1614 5.56076 21.1104 5.89288 21.8588 6.64124C22.6071 7.38961 22.9392 8.33856 23.0969 9.51098C23.25 10.6502 23.25 12.1058 23.25 13.9436V14.0564C23.25 15.8942 23.25 17.3498 23.0969 18.489C22.9392 19.6614 22.6071 20.6104 21.8588 21.3588C21.1104 22.1071 20.1614 22.4392 18.989 22.5969C17.8498 22.75 16.3942 22.75 14.5564 22.75H10.4436C8.60583 22.75 7.15019 22.75 6.01098 22.5969C4.83856 22.4392 3.88961 22.1071 3.14124 21.3588C2.39288 20.6104 2.06076 19.6614 1.90314 18.489C1.74997 17.3498 1.74998 15.8942 1.75 14.0564V13.9436C1.74998 12.1058 1.74997 10.6502 1.90314 9.51098C2.06076 8.33856 2.39288 7.38961 3.14124 6.64124C3.88961 5.89288 4.83856 5.56076 6.01098 5.40314C6.52475 5.33406 7.10288 5.29614 7.7514 5.27533C7.7554 4.66909 7.77081 4.14512 7.82991 3.70552C7.91432 3.07773 8.09999 2.51093 8.55546 2.05546C9.01093 1.59999 9.57773 1.41432 10.2055 1.32991C10.8003 1.24995 11.5495 1.24997 12.448 1.25ZM9.2518 5.25178C9.62993 5.24999 10.0269 5.25 10.4436 5.25H14.5564C14.9731 5.25 15.3701 5.24999 15.7482 5.25178C15.744 4.68146 15.73 4.25125 15.6835 3.90539C15.6214 3.44393 15.5142 3.24644 15.3839 3.11612C15.2536 2.9858 15.0561 2.87858 14.5946 2.81654C14.1116 2.7516 13.464 2.75 12.5 2.75C11.536 2.75 10.8884 2.7516 10.4054 2.81654C9.94393 2.87858 9.74643 2.9858 9.61612 3.11612C9.4858 3.24644 9.37858 3.44393 9.31654 3.90539C9.27004 4.25125 9.25601 4.68146 9.2518 5.25178ZM6.21085 6.88976C5.20476 7.02503 4.62511 7.2787 4.2019 7.70191C3.77869 8.12511 3.52502 8.70476 3.38976 9.71085C3.25159 10.7385 3.25 12.0932 3.25 14C3.25 15.9068 3.25159 17.2615 3.38976 18.2892C3.52502 19.2952 3.77869 19.8749 4.2019 20.2981C4.62511 20.7213 5.20476 20.975 6.21085 21.1102C7.23851 21.2484 8.59318 21.25 10.5 21.25H14.5C16.4068 21.25 17.7615 21.2484 18.7892 21.1102C19.7952 20.975 20.3749 20.7213 20.7981 20.2981C21.2213 19.8749 21.475 19.2952 21.6102 18.2892C21.7484 17.2615 21.75 15.9068 21.75 14C21.75 12.0932 21.7484 10.7385 21.6102 9.71085C21.475 8.70476 21.2213 8.12511 20.7981 7.70191C20.3749 7.2787 19.7952 7.02503 18.7892 6.88976C17.7615 6.7516 16.4068 6.75 14.5 6.75H10.5C8.59318 6.75 7.23851 6.7516 6.21085 6.88976ZM12.5 9.25C12.9142 9.25 13.25 9.58579 13.25 10V10.0102C14.3388 10.2845 15.25 11.143 15.25 12.3333C15.25 12.7475 14.9142 13.0833 14.5 13.0833C14.0858 13.0833 13.75 12.7475 13.75 12.3333C13.75 11.9493 13.3242 11.4167 12.5 11.4167C11.6758 11.4167 11.25 11.9493 11.25 12.3333C11.25 12.7174 11.6758 13.25 12.5 13.25C13.8849 13.25 15.25 14.2098 15.25 15.6667C15.25 16.857 14.3388 17.7155 13.25 17.9898V18C13.25 18.4142 12.9142 18.75 12.5 18.75C12.0858 18.75 11.75 18.4142 11.75 18V17.9898C10.6612 17.7155 9.75 16.857 9.75 15.6667C9.75 15.2525 10.0858 14.9167 10.5 14.9167C10.9142 14.9167 11.25 15.2525 11.25 15.6667C11.25 16.0507 11.6758 16.5833 12.5 16.5833C13.3242 16.5833 13.75 16.0507 13.75 15.6667C13.75 15.2826 13.3242 14.75 12.5 14.75C11.1151 14.75 9.75 13.7903 9.75 12.3333C9.75 11.143 10.6612 10.2845 11.75 10.0102V10C11.75 9.58579 12.0858 9.25 12.5 9.25Z" fill="#18202F"/>
</svg>
