<svg width="20" height="20" viewBox="0 0 20 20" fill="none" xmlns="http://www.w3.org/2000/svg">
<path fill-rule="evenodd" clip-rule="evenodd" d="M10.0013 1.04102C7.81518 1.04102 6.04297 2.81322 6.04297 4.99935C6.04297 7.18548 7.81518 8.95768 10.0013 8.95768C12.1874 8.95768 13.9596 7.18548 13.9596 4.99935C13.9596 2.81322 12.1874 1.04102 10.0013 1.04102ZM7.29297 4.99935C7.29297 3.50358 8.50553 2.29102 10.0013 2.29102C11.4971 2.29102 12.7096 3.50358 12.7096 4.99935C12.7096 6.49512 11.4971 7.70768 10.0013 7.70768C8.50553 7.70768 7.29297 6.49512 7.29297 4.99935Z" fill="#9B9DA3"/>
<path fill-rule="evenodd" clip-rule="evenodd" d="M10.0013 10.2077C8.30186 10.2077 6.73257 10.6 5.56643 11.2663C4.41797 11.9226 3.54297 12.9245 3.54297 14.166C3.54297 15.4076 4.41797 16.4094 5.56643 17.0657C6.73257 17.7321 8.30186 18.1243 10.0013 18.1243C11.7007 18.1243 13.27 17.7321 14.4362 17.0657C15.5846 16.4094 16.4596 15.4076 16.4596 14.166C16.4596 12.9245 15.5846 11.9226 14.4362 11.2663C13.27 10.6 11.7007 10.2077 10.0013 10.2077ZM4.79297 14.166C4.79297 13.5666 5.22381 12.9018 6.1866 12.3516C7.13171 11.8116 8.47909 11.4577 10.0013 11.4577C11.5235 11.4577 12.8709 11.8116 13.816 12.3516C14.7788 12.9018 15.2096 13.5666 15.2096 14.166C15.2096 14.7654 14.7788 15.4302 13.816 15.9804C12.8709 16.5205 11.5235 16.8743 10.0013 16.8743C8.47909 16.8743 7.13171 16.5205 6.1866 15.9804C5.22381 15.4302 4.79297 14.7654 4.79297 14.166Z" fill="#9B9DA3"/>
</svg>
