<svg width="48" height="48" viewBox="0 0 48 48" fill="none" xmlns="http://www.w3.org/2000/svg">
<g filter="url(#filter0_b_2158_7757)">
<rect width="48" height="48" rx="24" fill="white" fill-opacity="0.1"/>
<path d="M24.0186 14.9102C20.7086 14.9102 18.0186 17.6002 18.0186 20.9102V23.8002C18.0186 24.4102 17.7586 25.3402 17.4486 25.8602L16.2986 27.7702C15.5886 28.9502 16.0786 30.2602 17.3786 30.7002C21.6886 32.1402 26.3386 32.1402 30.6486 30.7002C31.8586 30.3002 32.3886 28.8702 31.7286 27.7702L30.5786 25.8602C30.2786 25.3402 30.0186 24.4102 30.0186 23.8002V20.9102C30.0186 17.6102 27.3186 14.9102 24.0186 14.9102Z" stroke="white" stroke-width="1.5" stroke-miterlimit="10" stroke-linecap="round"/>
<path d="M25.8719 15.1995C25.5619 15.1095 25.2419 15.0395 24.9119 14.9995C23.9519 14.8795 23.0319 14.9495 22.1719 15.1995C22.4619 14.4595 23.1819 13.9395 24.0219 13.9395C24.8619 13.9395 25.5819 14.4595 25.8719 15.1995Z" stroke="white" stroke-width="1.5" stroke-miterlimit="10" stroke-linecap="round" stroke-linejoin="round"/>
<path d="M27.0195 31.0605C27.0195 32.7105 25.6695 34.0605 24.0195 34.0605C23.1995 34.0605 22.4395 33.7205 21.8995 33.1805C21.3595 32.6405 21.0195 31.8805 21.0195 31.0605" stroke="white" stroke-width="1.5" stroke-miterlimit="10"/>
</g>
<defs>
<filter id="filter0_b_2158_7757" x="-12" y="-12" width="72" height="72" filterUnits="userSpaceOnUse" color-interpolation-filters="sRGB">
<feFlood flood-opacity="0" result="BackgroundImageFix"/>
<feGaussianBlur in="BackgroundImageFix" stdDeviation="6"/>
<feComposite in2="SourceAlpha" operator="in" result="effect1_backgroundBlur_2158_7757"/>
<feBlend mode="normal" in="SourceGraphic" in2="effect1_backgroundBlur_2158_7757" result="shape"/>
</filter>
</defs>
</svg>
