<svg width="93" height="90" viewBox="0 0 93 90" fill="none" xmlns="http://www.w3.org/2000/svg">
<path d="M19.0842 86.296H73.9143C75.4213 86.2997 76.874 85.7302 77.9812 84.7017C82.6001 80.3995 86.2953 75.1921 88.8395 69.3999C91.3836 63.6076 92.723 57.353 92.7751 51.0207C93.0117 25.2724 72.2065 4.08629 46.6116 4.02552C21.0021 3.96472 0.222687 24.8319 0.222687 50.5816C0.215374 56.9905 1.52711 63.3315 4.07529 69.2053C6.62347 75.0791 10.3529 80.3586 15.0288 84.7113C16.1337 85.735 17.5822 86.301 19.0842 86.296Z" fill="url(#paint0_linear_1944_2121)"/>
<path d="M52.8908 29.664C52.773 29.6336 52.6623 29.5803 52.5651 29.5071C52.4679 29.434 52.3861 29.3424 52.3243 29.2376C52.2625 29.1328 52.2219 29.0169 52.2049 28.8964C52.1879 28.7759 52.1948 28.6533 52.2252 28.5355C52.7413 26.5348 53.9305 24.6121 55.0805 22.7529C56.5017 20.4552 57.8441 18.2848 57.2696 16.8556C56.878 15.8813 55.5238 15.0892 53.2445 14.5012C50.9653 13.9132 49.3968 13.9513 48.5827 14.6145C47.3885 15.5875 47.5135 18.1364 47.6458 20.835C47.7528 23.0186 47.8635 25.2764 47.3473 27.2771C47.3171 27.3951 47.2639 27.5059 47.1908 27.6033C47.1176 27.7007 47.026 27.7827 46.9212 27.8446C46.8163 27.9066 46.7003 27.9473 46.5797 27.9643C46.4592 27.9814 46.3364 27.9745 46.2185 27.9441C46.1006 27.9137 45.9898 27.8603 45.8925 27.787C45.7952 27.7138 45.7134 27.622 45.6516 27.5171C45.5898 27.4122 45.5493 27.2961 45.5324 27.1755C45.5155 27.0549 45.5226 26.9321 45.5532 26.8142C45.999 25.086 45.8954 22.9711 45.7951 20.9258C45.6392 17.7461 45.492 14.7426 47.4124 13.178C48.7265 12.1073 50.7857 11.9533 53.7074 12.707C56.6291 13.4607 58.3568 14.5917 58.989 16.1645C59.9128 18.4629 58.331 21.0202 56.6563 23.7277C55.579 25.4693 54.4652 27.2701 54.0194 28.9983C53.989 29.1161 53.9357 29.2268 53.8625 29.324C53.7894 29.4212 53.6978 29.5031 53.593 29.5649C53.4882 29.6267 53.3722 29.6673 53.2518 29.6843C53.1313 29.7013 53.0086 29.6944 52.8908 29.664Z" fill="#A365ED"/>
<path opacity="0.3" d="M52.8908 29.664C52.773 29.6336 52.6623 29.5803 52.5651 29.5071C52.4679 29.434 52.3861 29.3424 52.3243 29.2376C52.2625 29.1328 52.2219 29.0169 52.2049 28.8964C52.1879 28.7759 52.1948 28.6533 52.2252 28.5355C52.7413 26.5348 53.9305 24.6121 55.0805 22.7529C56.5017 20.4552 57.8441 18.2848 57.2696 16.8556C56.878 15.8813 55.5238 15.0892 53.2445 14.5012C50.9653 13.9132 49.3968 13.9513 48.5827 14.6145C47.3885 15.5875 47.5135 18.1364 47.6458 20.835C47.7528 23.0186 47.8635 25.2764 47.3473 27.2771C47.3171 27.3951 47.2639 27.5059 47.1908 27.6033C47.1176 27.7007 47.026 27.7827 46.9212 27.8446C46.8163 27.9066 46.7003 27.9473 46.5797 27.9643C46.4592 27.9814 46.3364 27.9745 46.2185 27.9441C46.1006 27.9137 45.9898 27.8603 45.8925 27.787C45.7952 27.7138 45.7134 27.622 45.6516 27.5171C45.5898 27.4122 45.5493 27.2961 45.5324 27.1755C45.5155 27.0549 45.5226 26.9321 45.5532 26.8142C45.999 25.086 45.8954 22.9711 45.7951 20.9258C45.6392 17.7461 45.492 14.7426 47.4124 13.178C48.7265 12.1073 50.7857 11.9533 53.7074 12.707C56.6291 13.4607 58.3568 14.5917 58.989 16.1645C59.9128 18.4629 58.331 21.0202 56.6563 23.7277C55.579 25.4693 54.4652 27.2701 54.0194 28.9983C53.989 29.1161 53.9357 29.2268 53.8625 29.324C53.7894 29.4212 53.6978 29.5031 53.593 29.5649C53.4882 29.6267 53.3722 29.6673 53.2518 29.6843C53.1313 29.7013 53.0086 29.6944 52.8908 29.664Z" fill="white"/>
<path d="M71.3997 27.8022L54.333 19.4923C53.5975 19.1347 52.7863 18.9606 51.9688 18.9847L51.9532 18.9785L50.2563 19.1025L50.374 19.2896C49.9777 19.4335 49.6008 19.6264 49.2522 19.8637L33.5752 30.5667C32.843 31.0665 32.255 31.7499 31.8699 32.5484C31.4847 33.3468 31.316 34.2324 31.3807 35.1166L34.996 84.5826C35.0378 85.1542 35.1917 85.712 35.4491 86.2242C35.7064 86.7363 36.0622 87.1927 36.4959 87.5674C36.9297 87.9421 37.433 88.2277 37.9771 88.4078C38.5212 88.588 39.0955 88.6592 39.6672 88.6174L73.8129 86.1218C74.3845 86.08 74.9423 85.9261 75.4545 85.6687C75.9666 85.4113 76.4231 85.0556 76.7977 84.6219C77.1724 84.1881 77.458 83.6848 77.6381 83.1407C77.8183 82.5966 77.8895 82.0223 77.8477 81.4506L74.2324 31.9847C74.1678 31.1005 73.8721 30.2489 73.375 29.5149C72.8779 28.7809 72.1967 28.1903 71.3997 27.8022Z" fill="#DBD4E3"/>
<path opacity="0.05" d="M71.3997 27.8022L54.333 19.4923C53.5975 19.1347 52.7863 18.9606 51.9688 18.9847L51.9532 18.9785L50.2563 19.1025L50.374 19.2896C49.9777 19.4335 49.6008 19.6264 49.2522 19.8637L33.5752 30.5667C32.843 31.0665 32.255 31.7499 31.8699 32.5484C31.4847 33.3468 31.316 34.2324 31.3807 35.1166L34.996 84.5826C35.0378 85.1542 35.1917 85.712 35.4491 86.2242C35.7064 86.7363 36.0622 87.1927 36.4959 87.5674C36.9297 87.9421 37.433 88.2277 37.9771 88.4078C38.5212 88.588 39.0955 88.6592 39.6672 88.6174L73.8129 86.1218C74.3845 86.08 74.9423 85.9261 75.4545 85.6687C75.9666 85.4113 76.4231 85.0556 76.7977 84.6219C77.1724 84.1881 77.458 83.6848 77.6381 83.1407C77.8183 82.5966 77.8895 82.0223 77.8477 81.4506L74.2324 31.9847C74.1678 31.1005 73.8721 30.2489 73.375 29.5149C72.8779 28.7809 72.1967 28.1903 71.3997 27.8022Z" fill="black"/>
<path d="M72.4965 86.2176L38.3507 88.7132C37.7791 88.755 37.2048 88.6837 36.6607 88.5036C36.1166 88.3234 35.6133 88.0379 35.1795 87.6632C34.7457 87.2885 34.39 86.8321 34.1327 86.3199C33.8753 85.8078 33.7213 85.25 33.6796 84.6783L30.0642 35.2124C29.9996 34.3282 30.1683 33.4426 30.5534 32.6441C30.9386 31.8456 31.5266 31.1623 32.2588 30.6624L47.9358 19.9594C48.6747 19.4549 49.5339 19.1549 50.4262 19.0897C51.3185 19.0245 52.2122 19.1964 53.0166 19.5881L70.0833 27.898C70.8803 28.2861 71.5615 28.8766 72.0586 29.6106C72.5557 30.3446 72.8514 31.1963 72.916 32.0804L76.5313 81.5464C76.5731 82.1181 76.5019 82.6923 76.3217 83.2365C76.1416 83.7806 75.856 84.2839 75.4813 84.7176C75.1066 85.1514 74.6502 85.5071 74.1381 85.7645C73.6259 86.0218 73.0681 86.1758 72.4965 86.2176Z" fill="#DBD4E3"/>
<path d="M70.7108 36.916L32.3555 66.5523L33.6804 84.6798C33.7648 85.8343 34.3043 86.908 35.1803 87.6647C36.0563 88.4214 37.1971 88.7991 38.3515 88.7147L64.4016 86.6895L70.7108 36.916Z" fill="black" fill-opacity="0.05"/>
<path d="M69.203 33.8311L55.6889 20.5008C55.1063 19.9269 54.3933 19.5025 53.611 19.264L53.5982 19.2531L51.9507 18.8281L52.0025 19.043C51.5809 19.0526 51.1622 19.1149 50.756 19.2283L32.4799 24.3573C31.6264 24.5969 30.8507 25.0563 30.2305 25.6898C29.6103 26.3232 29.1673 27.1084 28.9459 27.9668L16.5563 75.9923C16.4132 76.5473 16.3807 77.1251 16.4608 77.6926C16.5409 78.2602 16.732 78.8064 17.0232 79.3001C17.3144 79.7938 17.7 80.2253 18.158 80.5699C18.616 80.9146 19.1373 81.1657 19.6923 81.3089L52.8437 89.8612C53.3987 90.0044 53.9765 90.0368 54.544 89.9567C55.1116 89.8766 55.6578 89.6855 56.1515 89.3943C56.6452 89.1031 57.0767 88.7175 57.4213 88.2596C57.766 87.8016 58.0171 87.2802 58.1603 86.7252L70.5498 38.6997C70.7713 37.8413 70.7634 36.9398 70.527 36.0854C70.2907 35.231 69.8341 34.4536 69.203 33.8311Z" fill="#EAE5F1"/>
<path opacity="0.05" d="M69.203 33.8311L55.6889 20.5008C55.1063 19.9269 54.3933 19.5025 53.611 19.264L53.5982 19.2531L51.9507 18.8281L52.0025 19.043C51.5809 19.0526 51.1622 19.1149 50.756 19.2283L32.4799 24.3573C31.6264 24.5969 30.8507 25.0563 30.2305 25.6898C29.6103 26.3232 29.1673 27.1084 28.9459 27.9668L16.5563 75.9923C16.4132 76.5473 16.3807 77.1251 16.4608 77.6926C16.5409 78.2602 16.732 78.8064 17.0232 79.3001C17.3144 79.7938 17.7 80.2253 18.158 80.5699C18.616 80.9146 19.1373 81.1657 19.6923 81.3089L52.8437 89.8612C53.3987 90.0044 53.9765 90.0368 54.544 89.9567C55.1116 89.8766 55.6578 89.6855 56.1515 89.3943C56.6452 89.1031 57.0767 88.7175 57.4213 88.2596C57.766 87.8016 58.0171 87.2802 58.1603 86.7252L70.5498 38.6997C70.7713 37.8413 70.7634 36.9398 70.527 36.0854C70.2907 35.231 69.8341 34.4536 69.203 33.8311Z" fill="black"/>
<path d="M51.5664 89.5325L18.415 80.9802C17.2941 80.691 16.334 79.9685 15.7459 78.9714C15.1578 77.9744 14.9898 76.7845 15.279 75.6637L27.6685 27.6381C27.89 26.7797 28.333 25.9946 28.9532 25.3611C29.5734 24.7277 30.349 24.2682 31.2025 24.0287L49.4787 18.8996C50.3401 18.6579 51.2501 18.6483 52.1165 18.8718C52.9828 19.0952 53.7746 19.5439 54.4116 20.1722L67.9256 33.5024C68.5568 34.125 69.0133 34.9023 69.2497 35.7567C69.4861 36.6112 69.4939 37.5127 69.2725 38.371L56.8829 86.3966C56.7398 86.9516 56.4887 87.4729 56.144 87.9309C55.7993 88.3889 55.3678 88.7745 54.8742 89.0657C54.3805 89.3568 53.8343 89.548 53.2667 89.6281C52.6992 89.7082 52.1214 89.6757 51.5664 89.5325Z" fill="#EAE5F1"/>
<path d="M50.2437 29.2843C51.9855 29.2843 53.3976 27.8723 53.3976 26.1304C53.3976 24.3886 51.9855 22.9766 50.2437 22.9766C48.5019 22.9766 47.0898 24.3886 47.0898 26.1304C47.0898 27.8723 48.5019 29.2843 50.2437 29.2843Z" fill="#DBD4E3"/>
<path d="M50.2465 28.3738C51.485 28.3738 52.489 27.3698 52.489 26.1312C52.489 24.8927 51.485 23.8887 50.2465 23.8887C49.0079 23.8887 48.0039 24.8927 48.0039 26.1312C48.0039 27.3698 49.0079 28.3738 50.2465 28.3738Z" fill="white"/>
<path d="M50.2465 28.3738C51.485 28.3738 52.489 27.3698 52.489 26.1312C52.489 24.8927 51.485 23.8887 50.2465 23.8887C49.0079 23.8887 48.0039 24.8927 48.0039 26.1312C48.0039 27.3698 49.0079 28.3738 50.2465 28.3738Z" fill="#EAE5F1"/>
<path d="M52.4172 26.6919C52.7237 25.5037 52.1251 24.3219 51.0802 24.0523C50.0353 23.7828 48.9397 24.5275 48.6332 25.7157C48.3266 26.9039 48.9252 28.0857 49.9701 28.3553C51.0151 28.6249 52.1106 27.8801 52.4172 26.6919Z" fill="white"/>
<path d="M56.9366 0.196654C55.3317 -0.215506 53.6287 0.0258344 52.2015 0.867723C50.7742 1.70961 49.7392 3.08329 49.3236 4.68736L48.2461 8.86422C47.5647 11.5164 47.5336 14.2938 48.1553 16.9606C48.6985 19.2901 48.6713 21.7164 48.0762 24.0332L47.913 24.6659C47.8778 24.8022 47.8698 24.944 47.8894 25.0833C47.909 25.2226 47.9559 25.3567 48.0274 25.4779C48.0988 25.5991 48.1935 25.7051 48.3059 25.7897C48.4183 25.8743 48.5463 25.9359 48.6825 25.9711C48.8188 26.0062 48.9606 26.0142 49.0999 25.9945C49.2392 25.9749 49.3733 25.9279 49.4945 25.8564C49.6157 25.7849 49.7216 25.6903 49.8061 25.5778C49.8907 25.4654 49.9523 25.3374 49.9874 25.2011L50.1506 24.5683C50.8321 21.9163 50.8632 19.1389 50.2414 16.4722C49.6982 14.1425 49.7253 11.7162 50.3205 9.3993L51.398 5.22244C51.6703 4.16778 52.3504 3.26445 53.2886 2.71115C54.2269 2.15785 55.3465 1.99988 56.4012 2.27198C57.4559 2.54409 58.3594 3.22398 58.9128 4.16213C59.4663 5.10029 59.6245 6.21986 59.3526 7.27462L58.275 11.4515C57.6753 13.7671 56.5254 15.9038 54.9231 17.6798C53.0887 19.7129 51.7723 22.1588 51.0857 24.8097L50.9225 25.4424C50.8872 25.5786 50.8791 25.7205 50.8987 25.8599C50.9183 25.9992 50.9652 26.1334 51.0366 26.2546C51.1081 26.3759 51.2027 26.4819 51.3152 26.5665C51.4276 26.6512 51.5556 26.7129 51.6919 26.748C51.8282 26.7832 51.97 26.7912 52.1094 26.7715C52.2488 26.7518 52.3829 26.7048 52.5041 26.6332C52.6253 26.5617 52.7312 26.4669 52.8157 26.3544C52.9003 26.2419 52.9619 26.1139 52.9969 25.9776L53.1601 25.3448C53.7598 23.0291 54.9097 20.8925 56.5121 19.1165C58.3465 17.0834 59.663 14.6375 60.3495 11.9866L61.427 7.80972C61.8392 6.20479 61.5979 4.50192 60.756 3.07468C59.9142 1.64745 58.5406 0.612416 56.9366 0.196654Z" fill="#A365ED"/>
<path d="M21.6264 70.1024C27.5426 70.1024 32.3387 65.3063 32.3387 59.3901C32.3387 53.4738 27.5426 48.6777 21.6264 48.6777C15.7101 48.6777 10.9141 53.4738 10.9141 59.3901C10.9141 65.3063 15.7101 70.1024 21.6264 70.1024Z" fill="#A365ED"/>
<path d="M19.613 64.7293C19.4561 64.7294 19.3007 64.6986 19.1557 64.6386C19.0107 64.5785 18.879 64.4904 18.7682 64.3793L15.2632 60.8745C15.0395 60.6503 14.9139 60.3465 14.9141 60.0298C14.9142 59.7131 15.0401 59.4095 15.264 59.1855C15.4879 58.9616 15.7916 58.8357 16.1083 58.8356C16.425 58.8354 16.7288 58.961 16.9529 59.1848L19.613 61.8448L26.2954 55.1624C26.4064 55.0515 26.5381 54.9635 26.683 54.9034C26.828 54.8434 26.9833 54.8125 27.1403 54.8125C27.2972 54.8125 27.4525 54.8434 27.5975 54.9034C27.7424 54.9635 27.8741 55.0515 27.9851 55.1624C28.096 55.2734 28.184 55.4051 28.2441 55.5501C28.3041 55.695 28.335 55.8504 28.335 56.0073C28.335 56.1642 28.3041 56.3195 28.2441 56.4645C28.184 56.6095 28.096 56.7412 27.9851 56.8521L20.4579 64.3793C20.3471 64.4904 20.2154 64.5785 20.0704 64.6386C19.9254 64.6986 19.77 64.7295 19.613 64.7293Z" fill="white"/>
<defs>
<linearGradient id="paint0_linear_1944_2121" x1="46.4999" y1="4.02539" x2="46.4999" y2="86.296" gradientUnits="userSpaceOnUse">
<stop stop-color="#FBFDFE"/>
<stop offset="1" stop-color="#F5F0FA"/>
</linearGradient>
</defs>
</svg>
