<svg width="111" height="90" viewBox="0 0 111 90" fill="none" xmlns="http://www.w3.org/2000/svg">
<path d="M25.5084 90H85.489C87.1375 90.004 88.7267 89.381 89.9379 88.2559C94.9907 83.5495 99.033 77.8529 101.816 71.5165C104.599 65.18 106.064 58.3377 106.122 51.4105C106.38 23.2432 83.6208 0.0666198 55.6215 0.000144978C27.6063 -0.0663674 4.87503 22.7613 4.87503 50.9302C4.86703 57.9412 6.30199 64.8779 9.08954 71.3036C11.8771 77.7293 15.9569 83.5047 21.072 88.2663C22.2806 89.3862 23.8652 90.0054 25.5084 90Z" fill="url(#paint0_linear_1944_2167)"/>
<path d="M103.18 20.0395L63.4261 15.2259C62.9562 15.169 62.4801 15.2566 62.0613 15.477C61.6424 15.6974 61.3006 16.0402 61.0814 16.4597C60.8622 16.8792 60.776 17.3555 60.8343 17.8253C60.8926 18.295 61.0925 18.7358 61.4076 19.089C61.8058 19.5355 62.017 20.1181 61.9973 20.716C61.9777 21.314 61.7288 21.8814 61.3021 22.3008L56.8326 26.6946C56.4917 27.0297 56.2621 27.4617 56.1751 27.9318C56.0881 28.4018 56.1478 28.8873 56.3461 29.3223L64.8585 47.9908C65.0696 48.4537 65.1233 48.9729 65.0115 49.4692C64.8997 49.9655 64.6286 50.4116 64.2394 50.7392L54.9111 58.5941C54.5493 58.8987 54.2888 59.3063 54.1643 59.7625C54.0397 60.2188 54.057 60.7021 54.2138 61.1484L58.062 72.099L59.9448 76.7441C60.101 77.1297 60.3577 77.4664 60.6881 77.7192C61.0185 77.972 61.4106 78.1317 61.8236 78.1817L95.6447 82.2769C97.7263 82.5289 99.8228 81.9437 101.473 80.65C103.123 79.3562 104.192 77.46 104.444 75.3783L110.079 28.8388C110.204 27.808 110.124 26.7628 109.845 25.7628C109.566 24.7627 109.093 23.8275 108.452 23.0104C107.811 22.1933 107.016 21.5104 106.112 21.0006C105.207 20.4909 104.211 20.1643 103.18 20.0395Z" fill="#DBD4E3"/>
<path d="M101.786 19.6489L62.0316 14.8353C61.5617 14.7784 61.0856 14.8659 60.6667 15.0864C60.2479 15.3068 59.9061 15.6496 59.6869 16.0691C59.4677 16.4886 59.3815 16.9649 59.4398 17.4346C59.4981 17.9043 59.698 18.3452 60.0131 18.6984C60.4113 19.1449 60.6224 19.7275 60.6028 20.3254C60.5832 20.9233 60.3343 21.4908 59.9076 21.9102L55.4381 26.304C55.0971 26.6391 54.8676 27.071 54.7806 27.5411C54.6935 28.0112 54.7532 28.4967 54.9516 28.9317L63.464 47.6002C63.6751 48.0631 63.7288 48.5823 63.617 49.0786C63.5052 49.5749 63.234 50.0209 62.8449 50.3486L53.5166 58.2035C53.1548 58.5081 52.8943 58.9156 52.7697 59.3719C52.6452 59.8281 52.6625 60.3115 52.8193 60.7577L56.6675 71.7084L58.5502 76.3535C58.7065 76.739 58.9632 77.0757 59.2936 77.3285C59.624 77.5813 60.0161 77.741 60.4291 77.791L94.2501 81.8862C95.2809 82.011 96.3261 81.9316 97.3261 81.6525C98.3261 81.3733 99.2614 80.8999 100.078 80.2593C100.896 79.6188 101.578 78.8235 102.088 77.919C102.598 77.0145 102.925 76.0184 103.049 74.9877L108.684 28.4482C108.809 27.4174 108.73 26.3722 108.451 25.3722C108.171 24.3721 107.698 23.4369 107.057 22.6198C106.417 21.8027 105.622 21.1198 104.717 20.61C103.813 20.1003 102.817 19.7737 101.786 19.6489Z" fill="#EAE5F1"/>
<path d="M61.2489 42.7395L106.295 48.1938L108.019 33.9549L55.4927 27.5948C55.3715 27.5802 55.2486 27.598 55.1365 27.6466C55.0245 27.6952 54.9274 27.7728 54.8553 27.8713C54.7832 27.9699 54.7387 28.0858 54.7262 28.2073C54.7138 28.3288 54.734 28.4514 54.7846 28.5625L61.2489 42.7395Z" fill="#DBD4E3"/>
<path d="M78.958 73.3244C83.0101 73.3244 86.2949 70.0395 86.2949 65.9874C86.2949 61.9353 83.0101 58.6504 78.958 58.6504C74.9059 58.6504 71.6211 61.9353 71.6211 65.9874C71.6211 70.0395 74.9059 73.3244 78.958 73.3244Z" fill="#A365ED"/>
<path opacity="0.15" d="M78.958 73.3244C83.0101 73.3244 86.2949 70.0395 86.2949 65.9874C86.2949 61.9353 83.0101 58.6504 78.958 58.6504C74.9059 58.6504 71.6211 61.9353 71.6211 65.9874C71.6211 70.0395 74.9059 73.3244 78.958 73.3244Z" fill="black"/>
<path d="M90.1924 74.6857C94.2444 74.6857 97.5293 71.4008 97.5293 67.3487C97.5293 63.2966 94.2444 60.0117 90.1924 60.0117C86.1403 60.0117 82.8555 63.2966 82.8555 67.3487C82.8555 71.4008 86.1403 74.6857 90.1924 74.6857Z" fill="#A365ED"/>
<path d="M2.2757 26.1886L14.1123 71.549C14.3744 72.5537 14.8319 73.4968 15.4585 74.3246C16.0852 75.1525 16.8687 75.8488 17.7644 76.3738C18.6602 76.8988 19.6505 77.2422 20.679 77.3845C21.7075 77.5267 22.7539 77.465 23.7585 77.2028L65.9919 66.182C66.258 66.1126 66.5014 65.9749 66.698 65.7825C66.8947 65.5902 67.0377 65.3499 67.113 65.0854C67.1883 64.8209 67.1933 64.5413 67.1274 64.2742C67.0616 64.0072 66.9272 63.7619 66.7376 63.5627L64.1838 60.8803L56.2469 51.7149C56.0369 51.4723 55.9056 51.1715 55.8706 50.8525C55.8356 50.5335 55.8986 50.2114 56.0511 49.9291L62.3621 38.2436C62.5262 37.9398 62.5863 37.5908 62.5332 37.2497C62.4802 36.9086 62.317 36.5943 62.0686 36.3547L45.7158 20.5855L49.2134 12.7155C49.3782 12.3446 49.394 11.9244 49.2575 11.5421C49.1211 11.1598 48.8427 10.8447 48.4802 10.662L42.8657 7.83312C42.5223 7.66007 42.1275 7.61817 41.7554 7.71528L7.92944 16.5422C6.92483 16.8044 5.98169 17.2618 5.15387 17.8885C4.32605 18.5151 3.62977 19.2987 3.10477 20.1944C2.57977 21.0902 2.23634 22.0806 2.09409 23.109C1.95184 24.1375 2.01355 25.1839 2.2757 26.1886Z" fill="#DBD4E3"/>
<path d="M1.12336 26.503L12.9599 71.8635C13.2221 72.8681 13.6795 73.8113 14.3062 74.6391C14.9328 75.4669 15.7164 76.1632 16.6121 76.6882C17.5078 77.2132 18.4982 77.5567 19.5267 77.6989C20.5551 77.8412 21.6015 77.7794 22.6061 77.5173L64.8396 66.4964C65.1057 66.427 65.3491 66.2893 65.5457 66.097C65.7423 65.9047 65.8853 65.6644 65.9606 65.3998C66.036 65.1353 66.0409 64.8557 65.9751 64.5887C65.9092 64.3216 65.7749 64.0764 65.5852 63.8772L63.0315 61.1948L55.0946 52.0293C54.8845 51.7867 54.7533 51.486 54.7183 51.167C54.6833 50.848 54.7462 50.5259 54.8987 50.2435L61.2098 38.558C61.3738 38.2543 61.4339 37.9052 61.3809 37.5641C61.3279 37.2231 61.1647 36.9087 60.9162 36.6691L44.5635 20.9L48.061 13.03C48.2259 12.659 48.2417 12.2389 48.1052 11.8566C47.9687 11.4743 47.6904 11.1591 47.3279 10.9765L41.7134 8.14757C41.37 7.97452 40.9752 7.93263 40.6031 8.02973L6.77709 16.8567C5.77248 17.1188 4.82935 17.5763 4.00153 18.2029C3.17371 18.8296 2.47742 19.6131 1.95243 20.5089C1.42743 21.4046 1.084 22.395 0.941747 23.4235C0.799495 24.452 0.861206 25.4984 1.12336 26.503Z" fill="#EAE5F1"/>
<path d="M44.5632 20.9004L2.52344 31.8708L6.14495 45.7488L56.661 32.5666L44.5632 20.9004Z" fill="#DBD4E3"/>
<path d="M18.2626 58.1938L41.0638 52.2438C41.4961 52.1311 41.9554 52.1946 42.3408 52.4205C42.7262 52.6464 43.0061 53.0161 43.1189 53.4484C43.2317 53.8806 43.1681 54.34 42.9422 54.7254C42.7164 55.1108 42.3466 55.3907 41.9144 55.5035L19.1132 61.4535C18.6809 61.5663 18.2216 61.5027 17.8362 61.2768C17.4508 61.0509 17.1709 60.6812 17.0581 60.2489C16.9453 59.8167 17.0088 59.3573 17.2347 58.9719C17.4606 58.5865 17.8303 58.3066 18.2626 58.1938Z" fill="#DBD4E3"/>
<path d="M32.6995 62.6389L20.2665 65.8833C19.3664 66.1182 18.8271 67.0383 19.062 67.9384C19.2969 68.8385 20.217 69.3778 21.1171 69.1429L33.5501 65.8985C34.4502 65.6636 34.9894 64.7435 34.7546 63.8434C34.5197 62.9433 33.5996 62.404 32.6995 62.6389Z" fill="#DBD4E3"/>
<path d="M65.631 7.93573L63.8268 5.94022C63.7949 5.90495 63.7542 5.87874 63.7089 5.86423L63.6999 5.85004L63.2478 5.69727L60.9023 10.1787L61.4225 10.3895L61.4302 10.381C61.4926 10.3962 61.5584 10.3883 61.6154 10.3587L65.5517 8.36317C65.5892 8.34415 65.6219 8.31675 65.6471 8.28308C65.6723 8.24941 65.6894 8.21039 65.697 8.16904C65.7047 8.12769 65.7027 8.08513 65.6913 8.04466C65.6798 8.0042 65.6592 7.96692 65.631 7.93573Z" fill="#DBD4E3"/>
<path d="M65.631 7.93573L63.8268 5.94022C63.7949 5.90495 63.7542 5.87874 63.7089 5.86423L63.6999 5.85004L63.2478 5.69727L60.9023 10.1787L61.4225 10.3895L61.4302 10.381C61.4926 10.3962 61.5584 10.3883 61.6154 10.3587L65.5517 8.36317C65.5892 8.34415 65.6219 8.31675 65.6471 8.28308C65.6723 8.24941 65.6894 8.21039 65.697 8.16904C65.7047 8.12769 65.7027 8.08513 65.6913 8.04466C65.6798 8.0042 65.6592 7.96692 65.631 7.93573Z" fill="black" fill-opacity="0.05"/>
<path d="M62.9496 5.83216L60.8174 9.82319C60.79 9.87451 60.7797 9.93323 60.7879 9.99082C60.7961 10.0484 60.8225 10.1019 60.8632 10.1435C60.9039 10.185 60.9568 10.2126 61.0142 10.222C61.0716 10.2315 61.1305 10.2224 61.1824 10.1961L65.1187 8.2006C65.1562 8.18158 65.1889 8.15417 65.2141 8.1205C65.2393 8.08682 65.2564 8.0478 65.264 8.00644C65.2717 7.96509 65.2697 7.92253 65.2583 7.88206C65.2468 7.84159 65.2262 7.80431 65.198 7.77312L63.3938 5.7776C63.3644 5.74505 63.3276 5.72005 63.2864 5.70473C63.2453 5.6894 63.2011 5.68419 63.1575 5.68954C63.114 5.69489 63.0724 5.71064 63.0362 5.73546C63 5.76029 62.9703 5.79345 62.9496 5.83216Z" fill="#DBD4E3"/>
<path d="M65.6896 35.9533L63.8854 33.9578C63.8535 33.9225 63.8128 33.8963 63.7675 33.8818L63.7585 33.8676L63.3063 33.7148L60.9609 38.1962L61.4811 38.4071L61.4888 38.3986C61.5512 38.4138 61.617 38.4059 61.674 38.3763L65.6103 36.3808C65.6478 36.3617 65.6805 36.3343 65.7057 36.3007C65.7309 36.267 65.748 36.228 65.7556 36.1866C65.7633 36.1453 65.7613 36.1027 65.7499 36.0622C65.7384 36.0218 65.7178 35.9845 65.6896 35.9533Z" fill="#DBD4E3"/>
<path opacity="0.05" d="M65.6896 35.9533L63.8854 33.9578C63.8535 33.9225 63.8128 33.8963 63.7675 33.8818L63.7585 33.8676L63.3063 33.7148L60.9609 38.1962L61.4811 38.4071L61.4888 38.3986C61.5512 38.4138 61.617 38.4059 61.674 38.3763L65.6103 36.3808C65.6478 36.3617 65.6805 36.3343 65.7057 36.3007C65.7309 36.267 65.748 36.228 65.7556 36.1866C65.7633 36.1453 65.7613 36.1027 65.7499 36.0622C65.7384 36.0218 65.7178 35.9845 65.6896 35.9533Z" fill="black"/>
<path d="M63.0082 33.8517L60.876 37.8427C60.8486 37.894 60.8383 37.9528 60.8465 38.0104C60.8547 38.0679 60.8811 38.1214 60.9218 38.163C60.9625 38.2046 61.0154 38.2321 61.0728 38.2416C61.1302 38.251 61.1891 38.242 61.241 38.2156L65.1773 36.2201C65.2148 36.2011 65.2475 36.1737 65.2727 36.14C65.2979 36.1064 65.315 36.0673 65.3226 36.026C65.3303 35.9846 65.3283 35.9421 65.3168 35.9016C65.3054 35.8611 65.2848 35.8238 65.2566 35.7926L63.4524 33.7971C63.423 33.7646 63.3861 33.7396 63.345 33.7243C63.3039 33.7089 63.2597 33.7037 63.2161 33.7091C63.1726 33.7144 63.1309 33.7302 63.0948 33.755C63.0586 33.7798 63.0289 33.813 63.0082 33.8517Z" fill="#DBD4E3"/>
<path d="M25.0039 9.14661L22.7951 10.6823C22.7561 10.7094 22.7249 10.7465 22.7047 10.7896L22.6895 10.7967L22.4805 11.2257L26.627 14.1222L26.9023 13.6331L26.8949 13.6243C26.9179 13.5644 26.9184 13.4981 26.8963 13.4378L25.4178 9.27957C25.4037 9.23995 25.3807 9.2041 25.3505 9.17483C25.3203 9.14555 25.2838 9.12363 25.2437 9.11076C25.2037 9.0979 25.1612 9.09444 25.1196 9.10066C25.078 9.10688 25.0384 9.1226 25.0039 9.14661Z" fill="#DBD4E3"/>
<path opacity="0.05" d="M25.0039 9.14661L22.7951 10.6823C22.7561 10.7094 22.7249 10.7465 22.7047 10.7896L22.6895 10.7967L22.4805 11.2257L26.627 14.1222L26.9023 13.6331L26.8949 13.6243C26.9179 13.5644 26.9184 13.4981 26.8963 13.4378L25.4178 9.27957C25.4037 9.23995 25.3807 9.2041 25.3505 9.17483C25.3203 9.14555 25.2838 9.12363 25.2437 9.11076C25.2037 9.0979 25.1612 9.09444 25.1196 9.10066C25.078 9.10688 25.0384 9.1226 25.0039 9.14661Z" fill="black"/>
<path d="M22.5799 11.54L26.2672 14.1626C26.3146 14.1963 26.3715 14.214 26.4297 14.2132C26.4878 14.2123 26.5442 14.193 26.5906 14.1579C26.6371 14.1228 26.6711 14.0739 26.6878 14.0181C26.7045 13.9624 26.703 13.9028 26.6835 13.848L25.205 9.68973C25.1909 9.6501 25.1678 9.61426 25.1377 9.58498C25.1075 9.55571 25.0709 9.53378 25.0309 9.52092C24.9908 9.50806 24.9484 9.5046 24.9068 9.51082C24.8652 9.51703 24.8256 9.53276 24.791 9.55676L22.5823 11.0924C22.5462 11.1175 22.5167 11.1508 22.4963 11.1896C22.4759 11.2285 22.4651 11.2717 22.4648 11.3156C22.4646 11.3594 22.4749 11.4027 22.495 11.4418C22.515 11.4809 22.5441 11.5145 22.5799 11.54Z" fill="#DBD4E3"/>
<path d="M39.2331 76.7616L38.7801 80.432C38.7721 80.4969 38.7815 80.5628 38.8071 80.623L38.8005 80.6451L39.0481 81.2527L45.8171 79.6624L45.5687 78.9318L45.553 78.9314C45.5126 78.8529 45.4453 78.7916 45.3633 78.7589L39.7488 76.4597C39.6953 76.4378 39.6375 76.4285 39.5798 76.4326C39.5222 76.4366 39.4662 76.4539 39.4163 76.4832C39.3664 76.5124 39.3239 76.5527 39.2922 76.601C39.2604 76.6493 39.2402 76.7042 39.2331 76.7616Z" fill="#DBD4E3"/>
<path opacity="0.05" d="M39.2331 76.7616L38.7801 80.432C38.7721 80.4969 38.7815 80.5628 38.8071 80.623L38.8005 80.6451L39.0481 81.2527L45.8171 79.6624L45.5687 78.9318L45.553 78.9314C45.5126 78.8529 45.4453 78.7916 45.3633 78.7589L39.7488 76.4597C39.6953 76.4378 39.6375 76.4285 39.5798 76.4326C39.5222 76.4366 39.4662 76.4539 39.4163 76.4832C39.3664 76.5124 39.3239 76.5527 39.2922 76.601C39.2604 76.6493 39.2402 76.7042 39.2331 76.7616Z" fill="black"/>
<path d="M39.459 81.4407L45.5263 80.0695C45.6044 80.0519 45.6747 80.0099 45.7272 79.9495C45.7797 79.8892 45.8116 79.8137 45.8182 79.734C45.8249 79.6543 45.8059 79.5745 45.7642 79.5063C45.7224 79.4381 45.66 79.385 45.586 79.3547L39.9716 77.0554C39.9181 77.0335 39.8603 77.0242 39.8026 77.0283C39.7449 77.0323 39.689 77.0497 39.6391 77.0789C39.5892 77.1081 39.5467 77.1484 39.5149 77.1967C39.4831 77.245 39.4629 77.3 39.4558 77.3574L39.0028 81.0278C38.9954 81.0876 39.0026 81.1484 39.0236 81.205C39.0446 81.2615 39.079 81.3122 39.1237 81.3526C39.1684 81.3931 39.2222 81.4223 39.2806 81.4376C39.3389 81.4529 39.4001 81.454 39.459 81.4407Z" fill="#DBD4E3"/>
<path d="M61.9285 79.6139L63.962 81.1169C63.9979 81.1435 64.0403 81.1601 64.0847 81.165L64.0957 81.1764L64.5407 81.2331L65.8681 76.6678L65.3496 76.5703L65.344 76.5795C65.2837 76.5772 65.2246 76.5967 65.1776 76.6346L61.922 79.2054C61.891 79.2299 61.866 79.2612 61.8491 79.2969C61.8321 79.3326 61.8236 79.3717 61.8243 79.4113C61.8249 79.4508 61.8346 79.4896 61.8527 79.5248C61.8708 79.5599 61.8967 79.5905 61.9285 79.6139Z" fill="#DBD4E3"/>
<path d="M61.9285 79.6139L63.962 81.1169C63.9979 81.1435 64.0403 81.1601 64.0847 81.165L64.0957 81.1764L64.5407 81.2331L65.8681 76.6678L65.3496 76.5703L65.344 76.5795C65.2837 76.5772 65.2246 76.5967 65.1776 76.6346L61.922 79.2054C61.891 79.2299 61.866 79.2612 61.8491 79.2969C61.8321 79.3326 61.8236 79.3717 61.8243 79.4113C61.8249 79.4508 61.8346 79.4896 61.8527 79.5248C61.8708 79.5599 61.8967 79.5905 61.9285 79.6139Z" fill="black" fill-opacity="0.05"/>
<path d="M64.7908 81.0533L66.0129 76.9795C66.0286 76.9271 66.0272 76.8711 66.0089 76.8195C65.9906 76.768 65.9564 76.7236 65.9112 76.6929C65.8659 76.6622 65.8121 76.6466 65.7574 76.6486C65.7028 76.6506 65.6502 76.6699 65.6073 76.7038L62.3517 79.2746C62.3207 79.2991 62.2957 79.3304 62.2788 79.3661C62.2618 79.4018 62.2533 79.4409 62.2539 79.4805C62.2546 79.52 62.2643 79.5588 62.2824 79.594C62.3005 79.6291 62.3264 79.6597 62.3582 79.6832L64.3916 81.1862C64.4248 81.2107 64.4634 81.2268 64.5041 81.2333C64.5449 81.2398 64.5866 81.2364 64.6257 81.2233C64.6649 81.2103 64.7003 81.188 64.729 81.1584C64.7577 81.1288 64.7789 81.0928 64.7908 81.0533Z" fill="#DBD4E3"/>
<defs>
<linearGradient id="paint0_linear_1944_2167" x1="55.4994" y1="0" x2="55.4994" y2="90" gradientUnits="userSpaceOnUse">
<stop stop-color="#FBFDFE"/>
<stop offset="1" stop-color="#F5F0FA"/>
</linearGradient>
</defs>
</svg>
