<svg width="20" height="20" viewBox="0 0 20 20" fill="none" xmlns="http://www.w3.org/2000/svg">
<path fill-rule="evenodd" clip-rule="evenodd" d="M8.28762 1.04102H11.715C13.2464 1.041 14.4595 1.04099 15.4088 1.16863C16.3858 1.29999 17.1766 1.57675 17.8003 2.20039C18.4239 2.82402 18.7007 3.61481 18.832 4.59183C18.9597 5.54118 18.9597 6.75421 18.9596 8.28567V9.21174C18.9596 9.76384 18.9597 10.2641 18.9486 10.7152C18.9559 10.7533 18.9596 10.7925 18.9596 10.8327C18.9596 10.8861 18.9529 10.938 18.9403 10.9875C18.9265 11.3576 18.9029 11.692 18.8625 11.9925C18.7617 12.7426 18.5459 13.3741 18.0443 13.8757C17.5427 14.3773 16.9112 14.5931 16.1611 14.6939C15.4386 14.791 14.52 14.791 13.3804 14.791H10.6263V17.7077H13.3346C13.6798 17.7077 13.9596 17.9875 13.9596 18.3327C13.9596 18.6779 13.6798 18.9577 13.3346 18.9577H6.66797C6.32279 18.9577 6.04297 18.6779 6.04297 18.3327C6.04297 17.9875 6.32279 17.7077 6.66797 17.7077H9.3763V14.791H6.62225C5.48259 14.791 4.56398 14.791 3.84151 14.6939C3.09142 14.5931 2.45986 14.3773 1.95826 13.8757C1.45666 13.3741 1.24092 12.7426 1.14007 11.9925C1.09968 11.692 1.07608 11.3576 1.0623 10.9875C1.04968 10.938 1.04297 10.8861 1.04297 10.8327C1.04297 10.7925 1.04676 10.7533 1.05399 10.7152C1.04295 10.264 1.04296 9.76384 1.04297 9.21175L1.04297 8.28567C1.04296 6.7542 1.04295 5.54118 1.17058 4.59183C1.30194 3.61481 1.5787 2.82402 2.20234 2.20039C2.82597 1.57675 3.61677 1.29999 4.59378 1.16863C5.54313 1.04099 6.75616 1.041 8.28762 1.04102ZM2.34024 11.4577C2.35067 11.588 2.36339 11.7104 2.37893 11.8259C2.46114 12.4374 2.61151 12.7612 2.84214 12.9918C3.07278 13.2225 3.39659 13.3728 4.00807 13.4551C4.63753 13.5397 5.47179 13.541 6.66797 13.541H13.3346C14.5308 13.541 15.3651 13.5397 15.9945 13.4551C16.606 13.3728 16.9298 13.2225 17.1605 12.9918C17.3911 12.7612 17.5415 12.4374 17.6237 11.8259C17.6392 11.7104 17.6519 11.588 17.6624 11.4577H2.34024ZM17.7065 10.2077H2.29606C2.29311 9.89405 2.29297 9.54854 2.29297 9.16602V8.33268C2.29297 6.74367 2.2943 5.61478 2.40944 4.75839C2.52216 3.91998 2.73355 3.43694 3.08622 3.08427C3.4389 2.73159 3.92194 2.5202 4.76034 2.40748C5.61673 2.29234 6.74562 2.29102 8.33464 2.29102H11.668C13.257 2.29102 14.3859 2.29234 15.2423 2.40748C16.0807 2.5202 16.5637 2.73159 16.9164 3.08427C17.2691 3.43694 17.4804 3.91998 17.5932 4.75839C17.7083 5.61478 17.7096 6.74367 17.7096 8.33268V9.16602C17.7096 9.54854 17.7095 9.89405 17.7065 10.2077Z" fill="#9B9DA3"/>
</svg>
