<svg width="56" height="56" viewBox="0 0 56 56" fill="none" xmlns="http://www.w3.org/2000/svg">
<rect width="56" height="56" rx="28" fill="#A365ED"/>
<path d="M30 18.75C31.9068 18.75 33.2615 18.7516 34.2892 18.8898C35.2952 19.025 35.8749 19.2787 36.2981 19.7019C36.7852 20.189 36.9973 20.5667 37.1147 21.2398C37.2471 21.9986 37.25 23.0809 37.25 25C37.25 25.4142 37.5858 25.75 38 25.75C38.4142 25.75 38.75 25.4142 38.75 25L38.75 24.9037C38.7501 23.1045 38.7501 21.8857 38.5924 20.982C38.417 19.9767 38.0432 19.3257 37.3588 18.6412C36.6104 17.8929 35.6615 17.5608 34.489 17.4031C33.3498 17.25 31.8942 17.25 30.0564 17.25H30C29.5858 17.25 29.25 17.5858 29.25 18C29.25 18.4142 29.5858 18.75 30 18.75Z" fill="white"/>
<path d="M18 30.25C18.4142 30.25 18.75 30.5858 18.75 31C18.75 32.9191 18.7529 34.0014 18.8853 34.7602C19.0028 35.4333 19.2148 35.811 19.7019 36.2981C20.1251 36.7213 20.7048 36.975 21.7109 37.1102C22.7385 37.2484 24.0932 37.25 26 37.25C26.4142 37.25 26.75 37.5858 26.75 38C26.75 38.4142 26.4142 38.75 26 38.75H25.9436C24.1058 38.75 22.6502 38.75 21.511 38.5969C20.3386 38.4392 19.3896 38.1071 18.6412 37.3588C17.9568 36.6743 17.583 36.0233 17.4076 35.018C17.2499 34.1143 17.25 32.8955 17.25 31.0964L17.25 31C17.25 30.5858 17.5858 30.25 18 30.25Z" fill="white"/>
<path d="M38 30.25C38.4142 30.25 38.75 30.5858 38.75 31L38.75 31.0963C38.7501 32.8955 38.7501 34.1143 38.5924 35.018C38.417 36.0233 38.0432 36.6743 37.3588 37.3588C36.6104 38.1071 35.6615 38.4392 34.489 38.5969C33.3498 38.75 31.8942 38.75 30.0564 38.75H30C29.5858 38.75 29.25 38.4142 29.25 38C29.25 37.5858 29.5858 37.25 30 37.25C31.9068 37.25 33.2615 37.2484 34.2892 37.1102C35.2952 36.975 35.8749 36.7213 36.2981 36.2981C36.7852 35.811 36.9973 35.4333 37.1147 34.7602C37.2471 34.0014 37.25 32.9191 37.25 31C37.25 30.5858 37.5858 30.25 38 30.25Z" fill="white"/>
<path d="M25.9436 17.25H26C26.4142 17.25 26.75 17.5858 26.75 18C26.75 18.4142 26.4142 18.75 26 18.75C24.0932 18.75 22.7385 18.7516 21.7109 18.8898C20.7048 19.025 20.1251 19.2787 19.7019 19.7019C19.2148 20.189 19.0028 20.5667 18.8853 21.2398C18.7529 21.9986 18.75 23.0809 18.75 25C18.75 25.4142 18.4142 25.75 18 25.75C17.5858 25.75 17.25 25.4142 17.25 25L17.25 24.9037C17.25 23.1045 17.2499 21.8857 17.4076 20.982C17.583 19.9767 17.9568 19.3257 18.6412 18.6412C19.3896 17.8929 20.3386 17.5608 21.511 17.4031C22.6502 17.25 24.1058 17.25 25.9436 17.25Z" fill="white"/>
<path d="M18 27.25C17.5858 27.25 17.25 27.5858 17.25 28C17.25 28.4142 17.5858 28.75 18 28.75H38C38.4142 28.75 38.75 28.4142 38.75 28C38.75 27.5858 38.4142 27.25 38 27.25H18Z" fill="white"/>
</svg>
