<svg width="85" height="85" viewBox="0 0 85 85" fill="none" xmlns="http://www.w3.org/2000/svg">
<path fill-rule="evenodd" clip-rule="evenodd" d="M39.4563 2.96964C40.8848 4.39812 41.8672 6.15493 42.426 8.13336C42.9849 6.15485 43.9673 4.39797 45.3958 2.96944L45.3961 2.96911L42.4264 -0.000624895L39.4562 2.96954L39.4563 2.96964ZM33.0924 33.0924C38.0087 28.176 41.2045 22.4476 42.4261 17.1079C43.6477 22.4475 46.8435 28.1759 51.7598 33.0922C56.6765 38.009 62.4056 41.2049 67.7456 42.4262C62.4057 43.6476 56.6768 46.8435 51.7602 51.7602C46.8441 56.6762 43.6484 62.4042 42.4267 67.7436C41.205 62.4041 38.0092 56.676 33.0932 51.76C28.1766 46.8434 22.4478 43.6475 17.1079 42.4261C22.4476 41.2045 28.1761 38.0087 33.0924 33.0924ZM8.13418 42.4263C6.15541 41.8675 4.39831 40.885 2.96963 39.4563L2.96953 39.4562L0 42.4258L2.97032 45.3961C2.97035 45.3961 2.97039 45.396 2.97042 45.396C4.39891 43.9675 6.15573 42.9851 8.13418 42.4263ZM39.457 81.8828L42.4264 84.8522L45.3959 81.8827C43.9677 80.4543 42.9855 78.6978 42.4266 76.7197C41.8678 78.6979 40.8854 80.4544 39.4571 81.8827C39.4571 81.8827 39.4571 81.8828 39.457 81.8828ZM81.8826 45.3959C80.4539 43.9673 78.6967 42.9849 76.7179 42.4261C78.6967 41.8673 80.4538 40.8849 81.8825 39.4562L81.8829 39.4558L84.8528 42.4258L81.8826 45.3959Z" fill="white"/>
</svg>
